<svg width="3961" height="1093" viewBox="0 0 3961 1093" fill="none" xmlns="http://www.w3.org/2000/svg">
<path d="M2435.1 1.00002C2408 5.10002 2388.7 31.2 2390.3 61.5C2390.9 72.1 2393.9 81.3 2399.2 88.8L2402.8 93.7L2394.2 97C2382 101.6 2363 110.7 2351.4 117.5C2307.5 143.3 2274.7 174.1 2245 217.3C2238.5 226.8 2233.8 231 2224.5 235.6C2204 245.7 2174.9 243.8 2147.7 230.6C2139.2 226.5 2125.9 217.6 2107.1 203.7C2080.9 184.3 2066.1 175.6 2050.2 170.4L2041.9 167.6L2047.8 165.5C2062.4 160.2 2072.4 151.1 2079.5 136.6C2085.4 124.6 2087.1 117.8 2087.7 103.9C2088.8 79.3 2079.9 55.8 2058.7 27.4C2048.8 14.1 2038 1.50002 2038 3.20002C2038 5.00002 2042.1 16.9 2044.9 23.3C2046 25.9 2051.7 36.6 2057.6 47.1C2073.4 75.4 2078 88.4 2078 104.4C2078 133.3 2053.3 159.6 2021.9 164.1C2014.7 165.2 2012.1 165.1 2005.7 163.9L1998 162.4L1995.5 170.7C1994.1 175.3 1992.7 179.6 1992.4 180.3C1992.1 181.3 1994.1 180.9 1999.2 179.2C2005.3 177.1 2008.4 176.6 2018 176.6C2035.1 176.6 2047.9 180 2067.3 189.6C2080.5 196.3 2088.4 201.3 2107 214.9C2150 246.5 2168.5 255 2194.5 255H2205.5L2183.8 276.9C2155.7 305.5 2133.4 329.2 2109.1 356.5C2087.3 380.9 2062 410.5 2062 411.5C2062 413.8 2123 357 2160.9 319.5C2208.4 272.5 2242.3 236.2 2283 189C2304.1 164.4 2312.9 155.5 2325.3 145.8C2358.8 120 2400.4 103.9 2450.5 97.4C2467.8 95.1 2504.9 95.1 2526 97.3C2551.1 99.9 2561.7 100.3 2573 99C2598.5 96.2 2617.7 84.5 2626.7 66.2C2630.2 59.2 2630.5 57.9 2630.5 50.1C2630.5 42.9 2630.1 40.6 2627.9 35.9C2622.7 24.9 2611.7 15.8 2598.7 11.8C2593.3 10.2 2590 9.80002 2582.6 10.2C2574.5 10.5 2572.4 11 2566.4 14C2552.8 20.6 2541.8 34.9 2537 52C2534.8 60.2 2534.2 77.1 2535.9 84.5C2536.5 86.7 2536.8 88.5 2536.7 88.6C2536.6 88.7 2531.1 88.1 2524.5 87.3C2517.9 86.5 2502.5 85.8 2490.2 85.7C2470 85.5 2468.1 85.4 2470 84C2486.6 72.2 2491.5 63.2 2491.5 44.5C2491.5 35.3 2491.2 33.9 2488.1 27.3C2479.5 8.80002 2457 -2.29998 2435.1 1.00002ZM2471.3 15.4C2487 22.1 2483 51.8 2463.4 72.9C2455.8 81 2449.2 85.5 2440.9 88.1C2430.3 91.4 2420.9 90 2411.6 83.9C2397.9 74.8 2392.1 54.5 2399.3 40.5C2406.7 26 2423.3 18.5 2440 22L2446 23.3L2454.2 19.2C2461.5 15.6 2464.2 14.6 2467.3 14.1C2467.7 14.1 2469.5 14.6 2471.3 15.4ZM2606.3 23.6C2612.6 25.7 2620.4 32.9 2622.6 38.5C2625.1 45.1 2624.1 51.4 2619.1 61.6C2607.3 85.4 2584 97.3 2565.3 89C2559.5 86.4 2551.3 78.5 2548.2 72.5C2544.5 65.2 2544.1 55.1 2547.3 49C2550.1 43.7 2557.8 37.2 2568.7 31C2583.5 22.5 2595.9 20 2606.3 23.6Z" fill="black"/>
<path d="M1977 39.9C1977 43.7 1988.6 60.5 2001.8 75.8C2011.3 86.8 2014.8 92 2017.2 98.8C2023.3 116.1 2011.1 135.5 1989.7 142.2C1981.8 144.7 1965.9 144.9 1953.6 142.5C1948.7 141.6 1944.5 141.1 1944.2 141.5C1943.4 142.3 1946.7 144.7 1952 147.3C1956 149.2 1958.1 149.5 1970 149.5C1982.3 149.5 1984.6 149.2 1995 146.2C2015.7 140.2 2027.1 133.2 2031.6 123.6C2036.2 113.7 2034.1 101.8 2025.5 88.8C2018.9 78.9 2002.2 59.4 1994.4 52.4C1985.6 44.7 1977 38.5 1977 39.9Z" fill="black"/>
<path d="M1754.1 66.1C1740.8 67.3 1722.2 70.6 1706.2 74.5C1666.4 84.3 1624.2 101.1 1629.8 104.8C1630.6 105.3 1634.8 106 1639.3 106.3C1647.9 107 1649.3 107.9 1648.4 112C1647.2 117.2 1639.3 122 1631.8 122C1629.6 122 1628.7 122.7 1627.4 125.7C1625.6 130 1624.1 147.5 1625.7 146.9C1626.2 146.7 1630.1 142.6 1634.4 137.8C1671.6 95.8 1732.8 71.1 1787.7 75.8C1828.7 79.4 1860.9 92 1894.9 117.8C1906.4 126.5 1916 131.7 1923.5 133.2C1933 135.1 1932.3 133.2 1919.8 123.3C1894.8 103.5 1881.1 94.3 1863.1 85.1C1831.2 68.8 1794.8 62.5 1754.1 66.1Z" fill="black"/>
<path d="M1553.3 76.9C1544.7 78.3 1534 81.9 1525.5 86.3C1519.5 89.5 1514.9 93.1 1506 101.5C1492.9 114.1 1487.6 117.9 1470 127.5C1452 137.2 1442.2 144 1435 151.6C1428 159.2 1422.5 169.5 1421.4 177.5L1420.7 182.5L1430.9 171.8C1447.4 154.4 1465.1 141.2 1486 130.4C1493.6 126.5 1496.9 124.1 1502.5 118.1C1519 100.6 1522.6 97.4 1529.5 93.8C1543.5 86.5 1560.9 83 1584 83C1597.9 82.9 1598.2 82.2 1585.3 78.9C1576.5 76.7 1561.1 75.7 1553.3 76.9Z" fill="black"/>
<path d="M2629 105.8C2630.9 106.7 2648.5 115.2 2668 124.5C2687.5 133.9 2706.2 143.4 2709.6 145.7C2721.6 153.8 2730 165 2730 172.7C2730 175.9 2730.1 176 2734.5 176C2739.5 176 2745.3 178.5 2748.6 182.2C2751.5 185.3 2753.2 189 2756.4 198.7C2761.2 213.2 2766.4 218.7 2785 229.1C2799.1 236.9 2805.5 241.5 2814.8 250.4C2827.5 262.6 2833.8 270.9 2893.4 354.2C2923.6 396.5 2948.7 431 2949 431C2949.4 431 2952.2 427.3 2955.2 422.7L2960.6 414.5L2880.1 313.8C2835.8 258.5 2794.9 207.8 2789.3 201.3C2777.1 187.1 2753.5 163.7 2742.5 155.1C2721.3 138.3 2698.5 125.5 2672.5 115.8C2663.8 112.6 2637.2 105.6 2630 104.7L2625.5 104.1L2629 105.8ZM2766.1 188.1C2778.1 194.3 2781.1 199.1 2777.5 206C2774.2 212.4 2765.5 212.8 2764.6 206.6C2764.5 205.8 2763.7 204.3 2762.8 203.3C2759.9 200 2757.8 194.8 2757.3 189.4C2757 186.4 2757.1 184 2757.5 184C2757.9 184 2761.8 185.9 2766.1 188.1Z" fill="black"/>
<path d="M1618 109C1612.9 110.4 1609.1 113.1 1603.4 119.3C1593.2 130.5 1578.2 153 1581 153C1582.9 153 1587.4 150.3 1589.8 147.7C1591.1 146.3 1595.4 140.3 1599.3 134.3C1607.4 122.1 1612.1 118.1 1619.4 117.3C1624 116.7 1624 116.7 1624 113C1624 108.9 1622.4 107.8 1618 109Z" fill="black"/>
<path d="M279.8 114.4C269 118.3 256.3 129.6 247.4 143.5C243.3 149.8 170.9 287.7 42.3 534L36.8 544.5L44.1 536.5C57.9 521.4 69.5 509.8 81.7 498.8C90.5 490.9 94.3 486.8 95.5 483.8C96.4 481.5 97.5 474.3 98 466.9C99.1 451.7 101.1 446 107.5 440.1C111.6 436.3 117.8 433.6 120.3 434.6C121.2 434.9 121.5 431.4 121.6 421.3C121.6 410.3 122 406 123.8 399.8C126.6 389.8 129.9 382.4 135.2 374.5C139.3 368.3 139.6 368 143.5 368C145.7 368 149.3 368.9 151.5 370C153.7 371.1 155.6 372 155.7 372C155.9 372 156 368.9 156 365.2C156 349.1 161.6 328.1 171.7 306.9C179.5 290.2 230.5 191.5 236.3 181.7C256.4 147.9 280.7 132.3 305.4 137.3C325 141.3 336.9 150.3 369 185.5C381.3 198.9 393.8 211 395.4 211C395.7 211 394.5 208.9 392.6 206.2C385.3 196 384.2 190.7 388.5 186.5C393.2 181.7 395.3 182.7 409.4 196.9L422.3 209.9L420.6 212.5C418.3 216 412.6 218.4 408 217.6C403.6 216.9 405.3 218.1 413 221.2C417.7 223.1 420.5 223.4 432.2 223.4L445.9 223.5L449 226.5C453.6 230.9 456.2 236.6 456.8 243.6C457.3 250.5 456.3 259 455 259C454.5 259 451.5 257.4 448.3 255.5C441.1 251.3 430.9 247.4 421.8 245.5C411.5 243.3 387 243.7 387 246C387 247 418.9 255.9 437 260.1C444.4 261.8 450.7 263.3 450.9 263.5C451.1 263.7 449.5 265.4 447.4 267.2C384.2 321.9 331.6 375.6 283.5 434.7L276.9 442.9L280.2 445.9C287.1 452.2 303.2 459 311.3 459C313.8 459 314 458.8 313 457.5C310.1 454 300.6 448.8 294 447.2L287 445.5L295.7 436C329.2 399.2 386.9 340.8 424.8 305.3C461.2 271.1 514.7 224 540.5 203.4C593.2 161.2 634.7 138.8 677.4 129.4C694 125.7 721 125 737.6 127.8C752.6 130.4 772 136.7 791 145.2C812.8 155 978.8 233.9 984.5 237.3C990.2 240.6 997.2 247 1000 251.5C1004.8 259.2 1004.5 271.9 999.4 277.9L997 280.8L1002.2 282.8C1010 285.7 1020.7 288.7 1028 290.1C1035.5 291.5 1059.2 291.8 1066.4 290.6L1071.2 289.8L1070.8 284.7C1070.3 279.4 1068.4 274.4 1065.2 270.2L1063.4 267.9L1063.8 271.5C1064.1 274.3 1063.7 275.7 1062 277.5C1057.8 282 1052.4 283.3 1039.3 282.9C1028.8 282.5 1026.9 282.2 1021.8 279.7C1015.2 276.5 1012.5 273.4 1010.9 267.7C1009.2 261.4 1010.6 255.2 1014.5 251.3C1017.3 248.5 1018.5 248 1022.6 248C1026.7 248.1 1030.1 249.4 1044 256.5C1059.1 264.2 1060.1 264.6 1056.1 261C1048.8 254.6 1040.1 250.2 956.8 210.8C886.6 177.6 876.3 173 874.2 173.9C873 174.5 870.3 175 868.4 175C863.6 175 857.8 169.4 847.8 155.3C843.5 149.1 838.2 142.7 836.2 141C825.4 132 792.2 121.8 761 117.8C745.5 115.9 707.5 116.2 692.6 118.4C658.4 123.4 631.2 131.6 602.5 145.6C566 163.3 537.4 186 509.5 219.4C498.1 233.1 480.9 234 457.6 222.3C449.6 218.3 445.5 215.5 361.6 158.7C327.5 135.6 297.8 115.9 295.6 114.9C290.8 112.7 285 112.6 279.8 114.4ZM819.7 139.6C821 140.4 823.1 143.3 824.5 146L827 150.9L824.8 152.4C821.6 154.7 817.7 154.4 812 151.5C807.6 149.3 807 148.6 807 145.9C807 138.1 812.8 135.3 819.7 139.6Z" fill="black"/>
<path d="M3495.8 122.1C3475.7 125 3457.3 135.9 3447.6 150.5C3445.6 153.4 3442.8 156.8 3441.4 157.9C3435.7 162.4 3425.9 162.9 3416.7 159.3C3414.4 158.4 3407.2 154.1 3400.7 149.9C3386.7 140.7 3381.2 139 3372.6 140.9C3369.6 141.6 3364.5 143.8 3361.3 145.9C3358.1 147.9 3334.4 166.4 3308.5 187C3282.7 207.5 3261.4 224.4 3261.3 224.4C3261.2 224.5 3264.5 224.4 3268.6 224.2C3273.9 223.9 3276 224.1 3276 225C3276 225.7 3274.4 229.3 3272.4 233.1C3265.8 245.5 3250.7 257 3238.6 258.6C3235 259.1 3234 259 3234 257.8C3234 254.7 3237.1 246.1 3239.2 243.4C3242.1 239.8 3253.8 230.5 3105.5 348.4C3037.9 402.2 2980.4 448.4 2977.9 451.1C2975.4 453.8 2972.7 456 2971.9 456C2971.1 456 2969.9 456.4 2969.1 456.9C2967.6 457.9 2968.1 458.6 2978.3 470.4L2981.7 474.3L2984.8 467.5C2996.6 442.4 3017.8 425.2 3127 352.3C3176.4 319.3 3202.5 301 3223.4 284.7C3263.7 253.3 3291.3 226.4 3320 190.5C3333.3 173.9 3340 166.9 3347.6 161.4C3360.2 152.4 3371.3 149.1 3382.2 151C3398.3 153.9 3410.2 163.5 3412.9 175.8C3414.6 184 3413.5 186.1 3404.5 192.1C3385.5 204.7 3370.4 224.2 3362.6 246C3359.7 253.8 3356.7 266.8 3358 265.3C3358.4 264.9 3362.2 259.8 3366.5 254.1C3393 218.8 3430.5 179.7 3454.4 162.6C3466.1 154.1 3485.2 144.7 3496 141.9C3525.5 134.3 3555.7 145.2 3578.6 171.8C3591.5 186.9 3600.9 201.8 3623 242.5C3655.6 302.8 3686.9 347.4 3721.5 382.9C3745.5 407.6 3763.4 421.8 3793.2 439.8C3795.2 441 3785.5 430.7 3771.6 416.8C3718.9 364 3687.9 320.9 3650.4 248.8C3632.2 213.7 3627.2 204.8 3617.3 189.8C3599 161.9 3580.7 143.9 3560 133.5C3540 123.4 3515.8 119.1 3495.8 122.1Z" fill="black"/>
<path d="M1898.5 153.1C1896.9 153.5 1893.8 155.4 1891.7 157.1C1884.8 162.8 1849.5 202.8 1845.7 209.1C1837.4 223.2 1838.6 237.3 1849.5 252.6C1857.8 264.2 1867 270.5 1895.3 283.6C1919.7 295 1928.4 300.4 1937.6 309.5C1952.8 324.7 1957 344.3 1948.5 360.9C1944.3 369.2 1938.4 373.4 1925.3 377.5C1912.9 381.4 1910.3 383.2 1921.6 380.1C1946.2 373.2 1967.4 359.3 1987.1 337.3C2001.2 321.4 2009.8 315.2 2021 313.2C2030.7 311.4 2039.2 314 2044.9 320.6C2052.7 329.4 2053.5 343.4 2047 356.6C2042 366.9 2031.6 374.6 2015.5 380.1C2010.9 381.6 1984.2 387.9 1956.3 394C1928.4 400.1 1904.7 405.3 1903.7 405.6C1902.5 406 1902 406.9 1902.2 408.3C1902.5 410.4 1903 410.5 1910.5 410.2C1921.7 409.9 1943.8 407.4 1961.5 404.4C2017.2 395.2 2048.8 379.3 2060.6 354.6C2063.5 348.6 2064 346.5 2064 340.5C2063.9 326.2 2059.5 320.9 2026.2 295.7C2005 279.6 1989.3 269.5 1970.4 259.7C1960.6 254.7 1951.1 248.9 1948.2 246.4C1941.3 240.3 1938 233.5 1938 225.1C1938 217.4 1939.5 214.3 1946.4 208C1950.5 204.2 1952.5 200 1950.1 200C1946.7 200 1928.7 218 1919.4 230.8C1919.3 231 1915.5 229.3 1911.1 227C1901.7 222.1 1890.7 212.4 1884.8 203.7L1880.8 197.8L1885.6 192.8C1888.3 190 1893.1 185.8 1896.2 183.5L1902 179.2L1897 178.1C1894.3 177.5 1890.3 176.7 1888.1 176.4L1884.1 175.8L1886 172.1C1890 164.3 1899.6 158.1 1907.8 158C1912.5 158 1913.2 156.8 1909.8 154.6C1906.6 152.6 1902 152 1898.5 153.1ZM1928.1 246C1962.4 267.5 1992.4 287.1 1994.8 289.4C2003.4 297.5 2004.1 302.5 1998 311.8C1990.8 323 1979.9 333 1968.8 338.6C1962.4 341.8 1962 341.7 1963.2 337.3C1968.3 318.7 1948.3 300 1894.3 272.6C1883.7 267.2 1872.1 260.6 1868.6 257.9C1854.5 247 1848.8 231.7 1853.6 217.6C1855.5 212.1 1861.4 205.6 1863.9 206.3C1864.9 206.5 1893.7 224.4 1928.1 246Z" fill="black"/>
<path d="M1270 156.3C1261.2 158.8 1257.6 161.5 1238.6 179.3C1186.9 227.9 1137.7 269.3 1081.4 311.6C1053.3 332.7 1047.2 338.2 1043.9 345.3C1041.9 349.9 1041.4 355 1043 355C1044.1 355 1067.6 337.6 1088 321.6C1142.1 279.4 1186.3 241.5 1237.6 193.3C1255 177 1258.2 174.6 1267.5 171C1272.7 168.9 1275.2 168.6 1287 168.6C1299.1 168.6 1301.3 168.9 1308.3 171.3C1323.6 176.6 1335.2 183.6 1356.8 200.4C1372.1 212.3 1380.9 221.4 1385.4 229.9C1387.4 233.7 1389 237.8 1389 239C1389 241.2 1388.8 241.2 1380.9 240.6C1372.9 239.9 1372.8 239.9 1373.2 242.1C1373.4 243.4 1375.1 245.5 1377 246.8C1386.6 253.3 1397.2 243 1394.5 229.8C1392.4 219.9 1386.5 214.3 1352.2 189.5C1312.3 160.7 1303.1 156.1 1284.5 155.4C1278.2 155.1 1272.8 155.5 1270 156.3Z" fill="black"/>
<path d="M1326 206C1326 208.1 1330.8 220.1 1338.6 237.4C1352.3 268 1353.8 270.9 1358.4 275.8C1361.3 278.9 1367 282.7 1367 281.5C1367 281.2 1365.4 278.8 1363.5 276.2C1358.7 269.5 1352.6 256.9 1350 248.5C1342.1 222.7 1340.5 218.5 1336.6 212.8C1334.4 209.5 1331 205.9 1329.3 204.8L1326 202.8V206Z" fill="black"/>
<path d="M847.5 212C846.8 213.1 853.5 218.2 860.4 221.7C867.3 225.2 878.2 227.3 885.7 226.6C899.9 225.2 898.7 222.9 883.4 222C872 221.2 865.9 218.7 863.8 213.8C862.6 211.1 862.2 211 855.3 211C851.4 211 847.8 211.4 847.5 212Z" fill="black"/>
<path d="M746.5 216.4C745.2 217.7 742.6 219.1 740.8 219.5C735.6 220.6 729.2 224.8 726 229.2C724.3 231.5 723.2 233.5 723.5 233.8C724.2 234.6 736.1 230 740.4 227.3C745.7 223.9 753 217 753 215.4C753 213.2 749.1 213.8 746.5 216.4Z" fill="black"/>
<path d="M925.1 243.1C930.3 251 956.4 261.1 971.3 261L975.5 260.9L972.5 258.4C963.4 250.8 942.8 242.5 930.1 241.3L923.5 240.7L925.1 243.1Z" fill="black"/>
<path d="M1413 258.5C1411 260.9 1412.4 270.1 1416 277.2C1418.7 282.8 1424.1 290 1425.5 290C1427.7 290 1424 271.8 1420.1 263.3C1417.1 256.9 1415.3 255.7 1413 258.5Z" fill="black"/>
<path d="M1 292.8C1 295.1 7.8 302.6 13.6 306.8C31.7 320 65.7 338.3 81.5 343.4C90.6 346.3 101.6 349 104.5 349C109.1 349 65.4 322.7 37.7 308.8C22.5 301.2 2.6 292 1.3 292C1.1 292 1 292.4 1 292.8Z" fill="black"/>
<path d="M1925 349C1917.5 349.9 1909.7 352.6 1902.3 356.6C1893.6 361.4 1893.3 362.5 1900.9 361.7C1910.4 360.7 1918.6 358.3 1927.8 353.9C1938.9 348.6 1938.1 347.3 1925 349Z" fill="black"/>
<path d="M3661 370.5C3661 377.6 3664.1 385 3669 389.5C3670.7 391.1 3673 394.1 3674 396.1C3675.1 398.2 3677.3 400.4 3679.4 401.4C3683.5 403.3 3687.4 403.5 3686.7 401.7C3686.2 400.4 3663.4 367.1 3661.9 365.5C3661.4 365 3661 367 3661 370.5Z" fill="black"/>
<path d="M1845.4 386.5C1834.6 389.2 1824.8 393.3 1796.5 406.8C1763 422.7 1751.8 426 1730.3 426C1719 426 1716.9 426.3 1712.5 428.4C1700.3 434.1 1690.4 452.3 1692.5 465.3C1693.5 471.6 1696.9 478.9 1698 477C1698.4 476.2 1701.6 466.5 1705 455.5C1708.4 444.5 1711.5 435.1 1711.7 434.7C1712.5 433.3 1716.1 437.2 1718.6 442.1C1723.4 451.8 1722.4 463.4 1715.4 477.3C1711.9 484.4 1709.6 487.7 1697.1 504.1C1682.4 523.5 1678.1 540 1685 551.7L1686.9 554.9L1683.8 557.5C1682.1 558.9 1679.1 560.8 1677.1 561.7C1671.6 564.2 1655.4 563.9 1639.2 561.1C1621.8 558 1612.7 558.4 1605 562.6C1585.4 573.2 1590.6 600.3 1617.9 630.2C1620.8 633.4 1623.6 636 1624 636C1624.5 636 1620.2 628.4 1614.5 619C1608.7 609.7 1603.4 600.4 1602.5 598.4C1600.3 593 1599.6 584.9 1601 580.6C1603.3 573.5 1601.9 573.7 1650.4 574.5L1693.8 575.2L1694.6 570.5C1696.1 560.2 1693.1 546 1687.4 536.2L1684.8 531.7L1704.6 511.9C1715.5 500.9 1724.8 492 1725.1 492C1725.5 492 1728.8 504.2 1732.5 519.2L1739.3 546.3L1742.6 542.8C1750.7 533.9 1749.2 518.6 1737.6 492.5C1730.6 476.6 1728.5 460.6 1732.3 450.9C1735.5 442.6 1738.3 440.9 1765.1 430.6C1800.7 417.1 1857.2 393.2 1870.6 386.1L1874.5 384.1H1864.5C1857.3 384.1 1852 384.7 1845.4 386.5Z" fill="black"/>
<path d="M2133.6 396.1C2123.2 401.6 2115.5 414.5 2111.5 433C2104.7 464.6 2103 468.8 2087.5 492C2082.1 500 2076.3 509.5 2074.5 513.1C2070.9 520.1 2067.6 530.3 2068.2 532.2C2068.6 533.4 2116 463.9 2120.1 456.1C2123.3 449.9 2123.6 443.7 2121.1 435.6C2116.6 421 2118.7 416 2132.7 407.6C2138.7 404.1 2143 399 2143 395.6C2143 393.3 2138.5 393.6 2133.6 396.1Z" fill="black"/>
<path d="M996.5 409.6C991.8 412 988.3 415.7 980.7 426.5C967 445.8 965 447.7 950.9 453.5C940.8 457.8 937.8 460.4 937.8 465.3C937.8 469.5 938.7 471.3 940.5 470.6C943.3 469.6 999.9 421.9 1000.4 420.2C1000.6 419.3 1001.2 416.1 1001.5 413.2C1002.3 407.4 1001.6 406.9 996.5 409.6Z" fill="black"/>
<path d="M2886.3 420C2884.4 420.8 2884 421.7 2884 425.7C2884 430.5 2886.8 438.1 2888.9 439.4C2890.7 440.6 2900.5 435.5 2902.8 432.2C2905.7 428.3 2905.6 426.9 2902.3 423.8C2897.7 419.6 2891.2 418.1 2886.3 420Z" fill="black"/>
<path d="M3497 444.7C3497 501.8 3488.9 543.6 3472.3 572.5C3465.7 584 3461.7 589.3 3451.8 599.7C3443.1 608.7 3442.2 610.2 3443.9 612.9C3444.6 614 3446.2 613.3 3451.7 609.5C3471.6 595.4 3487.4 572.1 3494.1 546.8C3495.9 540.2 3496.4 535.2 3496.7 522C3496.9 505.7 3497 505.5 3499.4 504.2C3503.7 502 3509.2 505.5 3512.9 513C3516 519.1 3528.3 565.1 3528.4 570.6C3528.4 575.7 3526.3 580.6 3523.6 581.6C3522.9 581.9 3520.9 580.7 3519.2 579.1C3513.7 573.6 3505.1 575.3 3502.6 582.4C3502.1 583.9 3502.3 584.1 3503.7 583.4C3504.7 583 3508 582.4 3511 582.2C3520.3 581.6 3524.7 585.9 3530.6 601.5C3532.1 605.3 3534.1 609.7 3535.1 611.1C3537.5 614.5 3543.2 617.2 3547.3 616.8C3550 616.5 3550.5 616.1 3550.3 614C3550.2 612.6 3546.1 599.6 3541.1 585C3527.5 545 3517.8 505.2 3511.5 463.1C3508.8 444.7 3506.4 437.3 3502.2 434C3497.4 430.1 3497 430.9 3497 444.7Z" fill="black"/>
<path d="M2949 465.8C2895.3 491 2848.8 523.2 2804.9 565.8C2797.8 572.7 2792.2 578.5 2792.4 578.7C2793.5 579.9 2863.6 534 2898 509.5C2927.2 488.7 2968.1 457.9 2966.3 458.1C2965.9 458.1 2958.1 461.6 2949 465.8Z" fill="black"/>
<path d="M2010.6 466.2C2009.8 467.5 2003 478.8 1995.6 491.4L1982 514.4V528.4C1982 543.5 1980 558.5 1975.6 576.5C1973.1 586.7 1945.4 690.3 1944.4 692.9C1943.3 696.2 1948.5 690 1954.1 681.6C1964.3 666.1 1967.8 654.8 1971 626.4C1974.1 598.5 1977.6 588.3 1987.2 578.8L1992.5 573.5L1993.1 583.5C1993.9 595.8 1995.2 601.2 2000 611.5C2003.4 618.7 2011.8 631.5 2012.7 630.7C2012.9 630.5 2011.9 625.6 2010.6 619.9C2004.3 593 1998.6 558.5 1995.9 531.2C1994.4 515.3 1995.1 512.1 2004.7 492.7C2011.3 479.5 2012.3 476.6 2012.8 470.7C2013 467 2013 464 2012.7 464C2012.3 464 2011.4 465 2010.6 466.2Z" fill="black"/>
<path d="M3807 477.7C3807 479.9 3823.3 499.5 3834.4 510.6C3850.6 526.8 3860.2 533.9 3889.5 551.5C3923.3 571.8 3934.7 580.9 3943.9 595C3945.8 598 3948.4 603.2 3949.6 606.5C3951.6 611.9 3952.1 612.5 3954.5 612.3C3957.5 612.1 3961 609.4 3961 607.5C3961 604.6 3950.2 590 3942.2 582C3932.5 572.4 3820.5 482.3 3814.1 479.1C3810.1 477 3807 476.4 3807 477.7Z" fill="black"/>
<path d="M3754.2 499C3754.5 503.7 3755.4 507.3 3757.4 511.3C3760.1 516.8 3768.1 526 3770.2 526C3774 526 3765.1 504.8 3758 497L3753.9 492.5L3754.2 499Z" fill="black"/>
<path d="M2189.8 508C2179.4 517.1 2173.2 532.9 2174.7 546.3C2175.2 550.8 2175.4 551 2177 549.5C2179.9 546.8 2183.2 537.9 2183.8 531.3C2184.3 525.3 2184.3 525.2 2187.6 524.6C2191.7 523.8 2196.7 518.3 2197.6 513.6C2198.2 509.9 2197.1 504.9 2195.4 504.3C2194.8 504.1 2192.3 505.8 2189.8 508Z" fill="black"/>
<path d="M2107.8 516.7C2099.4 529.5 2097.5 550.9 2102.5 576.4C2104.7 587.3 2104.9 588 2106.5 588C2108.5 588 2114.8 593.7 2116.5 597.1C2117.3 598.6 2119.4 604.7 2121.1 610.7C2126.9 630.9 2134.8 644.5 2148.6 658C2154.3 663.6 2156 664.9 2155.5 663C2154.3 658.9 2145.3 641.4 2136.7 626.5C2111.3 582.3 2105.1 558.5 2111.2 529C2113.2 519.1 2113.2 513 2111.1 513C2110.6 513 2109.2 514.7 2107.8 516.7Z" fill="black"/>
<path d="M2134.3 519.7C2133 527.6 2133.5 544.9 2135.4 551.9C2139.3 566.9 2144.9 577.2 2155.7 589.1C2169.5 604.4 2172 611.6 2172.9 637.5L2173.5 655.5L2176.3 651.1C2182.8 641.2 2186.2 629.3 2186.3 616.6L2186.4 607.7L2180.8 602.6C2160.2 583.9 2144.4 556.1 2138.5 528.1C2137.7 524.1 2137 519.5 2137 517.9C2137 513.3 2135.2 514.5 2134.3 519.7Z" fill="black"/>
<path d="M768.6 524.8C768.4 525.2 767.6 535.5 767 547.6C765.2 584.4 760.1 620.9 752.5 651.2C750.7 658.1 758.9 650.8 761.4 643.2C762.3 640.6 763.4 633.1 764 626.6C764.7 617.1 765.5 613.6 767.5 609.4C770 604.4 775.7 599.2 777.1 600.8C777.6 601.3 791.4 637 798.7 656.6C798.9 657.2 795.8 658.6 791.5 659.9C785.1 661.7 783.9 662.4 784.5 663.8C787.3 670.7 800.6 712.3 803.9 724.5C806.2 732.7 808.3 740.3 808.6 741.2C809.3 743.6 803.7 746.4 799.6 745.6C792.6 744.3 786.8 736.6 781.4 721.5C779.8 716.8 774.3 710 772.2 710C769.1 710 770.4 724.8 774.2 732.3C778.8 741.5 789.6 748.8 799.1 749.3L804.2 749.5L803.6 754.2C802.9 760.4 800.1 766.6 796.1 771.3L792.8 775L796.8 779.5C801.7 785.1 804 791.4 804 799.2C804 805.6 800.7 815 798.5 815C797.7 815 795.2 813.5 792.8 811.7C783.6 804.7 778.7 793 780.8 782.6C781.4 779.8 781.7 777.4 781.5 777.2C781.3 777 780.2 777.3 779.1 777.9C777.3 778.9 776.5 780.9 774.6 789.3C774.2 790.9 772.8 793.3 771.4 794.7C769.2 796.9 768.2 797.2 764.7 796.7C758.3 795.9 753.7 790.1 751.4 780.4C749.2 771 747.2 767.8 741.8 764.4C725.5 754.1 714.5 730.7 710.5 697.8C709.9 692.7 710 692.1 712 691C721.2 686.1 728 674.6 728 664C728 657.3 727.2 653 726.1 653C724.8 653 708 687.8 706.5 693.6C704.6 701.6 704.6 718.5 706.6 727C709 737.3 715.1 748.9 722.4 756.8C731.8 767.1 731.8 766.8 723.1 789.9C719.1 800.5 715.5 814.1 713 828.5C710.1 845.3 706.7 877.9 707.3 883.2C708.3 891.8 712 896.1 717 894.5C720.2 893.5 721.2 890.3 722.6 876.7C723.4 868.7 724.4 863 725.4 861.5C726.8 859.3 726.8 858.8 724.9 854.4C722.1 848.3 722.8 844.5 728.5 833.6C731 828.8 733 823.7 733 822.2C733 820.6 731.8 815.6 730.4 810.9C726.4 797.8 728.1 789.7 735.6 786.1C738.3 784.8 738.5 784.8 740.5 787.5C747.5 797.4 755.7 802.8 766.5 805C783.6 808.4 791.8 820.7 795 848C797.1 866.5 799.3 873.1 805.7 880.1C811.3 886.2 816.2 888.4 823.3 887.7C829 887.2 829.2 887.3 828.6 889.3C826.5 896.3 825.9 904.4 826.9 911C828.1 918.4 831.1 927.4 833.5 930.6C834.8 932.3 834.9 931.7 835 924C835.1 919.3 835.7 891.4 836.4 862C837.1 832.6 837.6 808.4 837.4 808.2C837 807.6 834 818.8 832 828.3C829.3 841 827.8 858.5 828.2 871.3C828.5 881.8 828.4 882.1 826.2 882.7C822 883.7 817 882 813.2 878.2C805.1 870.1 802.5 860 802.7 837.5C802.8 821 803.3 816.8 810.6 777.5C813 764.6 813.4 760 813.4 744C813.4 726.2 813.3 725.1 810.2 714C800.8 680.4 801.6 685.8 801.5 660.5C801.3 633.9 801.4 634.3 790.2 605.9C778.7 576.8 776.9 567.4 779.5 549.4C781.5 536.1 780.9 532.1 776.3 527.8C773.2 525 769.5 523.5 768.6 524.8Z" fill="black"/>
<path d="M3380.3 534.6C3374.7 547.7 3371 565.8 3371 580.2C3371 584.4 3371.9 594 3373.1 601.7C3375.5 618.2 3375 625.2 3369.5 651.5C3363.1 681.9 3363 687.3 3367.1 750.5C3367.7 760.8 3367.7 773.9 3366.9 792.5C3364.9 839.5 3367.3 858.8 3377.7 879.5C3380.9 885.8 3389.9 898.4 3390.7 897.7C3390.9 897.4 3389.9 894.4 3388.4 890.9C3371.7 851.3 3367 806.9 3375.2 766C3376.5 759.8 3377.4 751.4 3377.4 745.5C3377.5 736.3 3377.3 735 3374.5 729.5C3369.8 720 3370 714.7 3376.5 668.5C3379.6 646.5 3382.2 624.7 3382.3 620C3382.4 612.4 3382 610.7 3379.1 604.1C3376 597.3 3375.8 596 3376.2 589.1C3376.5 584.5 3377.7 578.7 3379.2 574.5C3380.7 570.6 3382.8 564.8 3384 561.5C3388.5 549.2 3388.5 537.4 3384.1 531.9C3382.4 529.7 3382.4 529.7 3380.3 534.6Z" fill="black"/>
<path d="M3271.8 568.9L3259.4 603.8L3262.8 604.4C3267.3 605.1 3272.6 609.2 3275 614C3277.6 619 3277.5 625.6 3275 632.2L3272.9 637.5L3275.7 639.5C3286.9 647.8 3292 656.4 3292.8 668.5C3293.2 674.9 3293.5 676 3295.1 676C3298 676 3299.3 672.4 3298.6 666.6C3298.2 663.8 3295.9 651.4 3293.4 639.1C3285.3 598.9 3284.2 582.6 3288 560.9C3289.1 554.6 3290 547.7 3290 545.5C3290 541.4 3287.3 534.9 3285.4 534.3C3284.8 534.1 3279.1 548.6 3271.8 568.9Z" fill="black"/>
<path d="M3655.5 544.2C3655.3 544.9 3654.6 550.7 3654 557C3651.1 587.8 3641.7 614.5 3624 641.9C3615.1 655.8 3609.9 666.6 3609.2 672.7L3608.7 677.3L3611.9 675.1C3617.1 671.3 3621.7 664.4 3630.1 647.3C3640.9 625.3 3647.1 618.9 3658.5 617.8L3661.5 617.5L3661.2 622.5C3660 640.1 3651.8 663.7 3638.2 688.5C3623.1 716.2 3621 718.4 3610.9 718.3C3602.3 718.2 3594.6 714.3 3583.7 704.3C3575.2 696.7 3564.8 690 3561.2 690C3560.4 690 3563.7 694.2 3568.6 699.2C3578.7 709.9 3591.6 725.8 3599.7 737.7C3602.8 742.3 3605.7 746 3606.1 746C3606.4 746 3607.3 744.6 3608.1 742.8C3610.4 737.3 3620.4 727.6 3627.3 724.1C3636.5 719.7 3637 719.8 3637 726.7C3637 732.6 3639.2 738.9 3642.7 743.4C3643.7 744.6 3647.7 748.4 3651.7 751.8C3662.6 761.2 3671.6 775 3675.5 788.3C3676.8 793 3677.5 794 3679.3 794C3684.3 793.9 3684.6 792.8 3681.7 784.1C3677.4 770.9 3669.8 760.5 3658.4 751.9C3655.2 749.6 3652.4 746.4 3651.1 743.6C3647.3 735.8 3647.4 728.7 3651.9 690C3654.2 670.5 3656.3 654 3656.5 653.3C3657.1 651.5 3662.8 653.5 3666.3 656.7C3670.3 660.6 3672.6 665.3 3675.1 675.4C3677.8 686.2 3680.3 690 3685.7 691.9C3689.4 693.2 3690.1 693.2 3692.4 691.7L3694.9 690L3690.6 685.6C3684.3 679.3 3680.3 670.1 3670.1 638C3659.2 603.6 3657.6 596.7 3658.2 584.6C3658.6 576.6 3659.1 574.3 3662.9 565.5C3668.1 553.5 3668.7 547.8 3665.1 544.9C3662.5 542.8 3656.2 542.3 3655.5 544.2Z" fill="black"/>
<path d="M2195.8 556C2195.4 564.6 2194.8 569.4 2193.8 571.3C2192.1 574.3 2192.5 578.3 2194.4 577.7C2195 577.5 2196.8 575.3 2198.3 572.8C2203.1 565.1 2203 551.9 2198.1 545.9C2196.3 543.6 2196.3 543.7 2195.8 556Z" fill="black"/>
<path d="M1854.1 552C1846.3 555.7 1840.9 559.9 1836 566.1L1832.2 570.9L1828.5 565.4C1817.9 550.1 1805 545.7 1795 554.2C1790.2 558.4 1785.7 559.7 1773.4 560.6C1762.6 561.3 1757.5 563.6 1754.5 569.2C1751.1 575.5 1752.3 575.7 1773.7 572.4C1809.3 566.9 1826.8 568.6 1837.9 578.6C1846.8 586.6 1849.9 597.1 1848 613.4C1844.8 641.6 1844.8 642.3 1845.9 654.4C1847.2 667.7 1850.4 683.5 1854.9 697.6C1859.5 712.5 1869.2 737.2 1870.1 736.3C1871.4 735 1873.8 724.9 1874.4 717.9C1875.9 701.9 1879.2 618.2 1878.7 607C1878.1 593.9 1875.5 578.6 1872 568.5C1868.4 558.1 1863.8 549 1862.1 549C1861.2 549 1857.6 550.4 1854.1 552ZM1862.2 566C1866 568.9 1868.4 588 1868.5 615C1868.5 634.3 1866.6 658 1865 658C1863.9 658 1860.4 653.7 1858.4 650C1856.4 646.2 1856.1 639.4 1857.1 615.9L1857.5 604.3L1851.7 592.9C1845.3 580.1 1844.7 576.3 1848.3 570.9C1850.4 567.8 1856 564 1858.6 564C1859.2 564 1860.9 564.9 1862.2 566Z" fill="black"/>
<path d="M1527.5 551.5C1524.2 552.2 1519.3 553.6 1516.5 554.5C1510.2 556.7 1465.8 575.1 1464.7 576C1464.3 576.4 1470.6 577 1478.7 577.4C1486.8 577.8 1493.6 578.3 1493.9 578.5C1495.1 579.7 1464.8 624.8 1446.5 649C1393.8 718.6 1351.8 752.7 1304.1 764.8C1294.6 767.2 1291.7 767.5 1275.5 767.5C1259.6 767.5 1256.5 767.2 1249 765.1C1231.5 760.2 1218.8 752.8 1207.8 741.2C1198.6 731.4 1196.9 728 1203 731.5C1204.4 732.3 1207 732.9 1208.9 733C1216 733 1223 720.3 1223 707.1C1223 701.4 1211.6 577.3 1210.5 571.6C1209.9 568.1 1207.3 565 1205 565C1201.8 565 1196.2 572.7 1194.6 579.4C1193.6 583.4 1195.8 709 1197.1 721.7C1198.9 740.4 1203.4 752.1 1212.1 760.8C1222.8 771.5 1237 774.9 1248.6 769.6C1251.7 768.2 1254.4 767 1254.6 767C1254.9 767 1252.9 769.8 1250.3 773.2C1235.5 792.5 1232.8 819.1 1243.5 840.3C1245.4 844.2 1246.9 847.5 1246.7 847.6C1246.6 847.7 1243 848.3 1238.7 848.9C1228.7 850.3 1214.6 850.3 1204.3 848.9L1196.2 847.8L1186.9 854.9C1175.7 863.4 1155.5 873.7 1135.5 881C1085.3 899.4 1077.2 902.9 1060.8 913.9C1007.3 949.7 974.4 1016.7 980 1078.5C980.6 1085.6 981.3 1091.8 981.6 1092.2C981.9 1092.6 983.8 1093 985.9 1093H989.7L988.7 1086.2C987.3 1075.9 988.5 1048.1 990.9 1037.5C998.3 1003.8 1012.9 977.5 1039 950.6C1085.4 902.8 1159.3 870.9 1239.9 863.9C1257.1 862.4 1302.4 863.3 1317.5 865.4C1348.5 869.8 1372.7 875.8 1401 886.2C1408.4 889 1417.7 891.8 1421.5 892.6C1427 893.7 1451.4 894.4 1532.2 895.7C1625.5 897.2 1636.8 897.2 1645.2 895.8C1657.8 893.8 1665.7 890.1 1672 883.4C1681 873.9 1683.6 864.6 1680.1 854.5C1675.8 842.4 1677.9 832.4 1686.8 822.9C1697.1 811.8 1707 807.9 1725 807.8C1731.4 807.8 1741.1 808.4 1746.5 809.1C1762.9 811.1 1778.3 810.7 1786 808.1C1798.2 803.9 1806.5 797.5 1810.1 789.6C1813.1 783.1 1812.2 774 1808.7 774C1808 774 1803.7 780.5 1799.1 788.5C1794.6 796.5 1790.6 803 1790.2 803C1789.8 803 1783.7 798.2 1776.5 792.4L1763.5 781.9L1762.7 786.1C1761.5 792 1753.5 799.9 1745.5 803.1C1740.1 805.2 1738.3 805.4 1728 805C1721.7 804.8 1711.3 804.6 1704.9 804.5C1693.5 804.5 1693.2 804.6 1688.1 807.8C1685.2 809.5 1682.7 811 1682.4 811C1682.2 811 1681.9 806.2 1681.9 800.2C1681.8 794.3 1681.5 784.7 1681.1 778.8L1680.5 768L1677.5 769.8C1675.8 770.8 1673.2 774.1 1671.6 777.1C1667 785.4 1666.9 794.7 1671 813.1C1676 835.8 1675.1 846.3 1667.2 858.6C1659.6 870.3 1646.1 879.7 1631 883.9C1617 887.8 1603.5 888.5 1574 886.6C1473.7 880.3 1424.9 876.9 1420.7 876C1411.9 874.2 1405.4 869.7 1401.9 862.9C1398.2 855.6 1397.8 848 1399.5 812.7C1400.4 794.4 1401 777.2 1400.8 774.5L1400.5 769.5L1396.8 773.1C1391.5 778.2 1390.5 783.1 1391.9 795.5C1393.4 808.9 1393.3 811.8 1391 816.7C1387.6 824.3 1379.5 827 1372 823.2C1367.6 821 1366.1 817.2 1367.9 812.7C1371.1 805.2 1370.7 803.3 1363 788.6C1354.2 771.6 1353.2 766.8 1357.7 760.4C1360.9 755.6 1529.3 556.9 1529.7 557.3C1529.8 557.5 1527.2 564.5 1524 573C1520.7 581.5 1518 588.7 1518 588.9C1518 589.1 1519.8 587.6 1521.9 585.7C1530.6 577.8 1543.2 580 1555.7 591.4C1558.8 594.2 1587.7 626 1619.8 662C1652 698 1679.6 728.8 1681.2 730.5C1683.3 732.6 1682.3 730.5 1677.8 723C1674.2 717.2 1661.5 696.4 1649.6 676.7C1629.1 643.2 1627.5 640.8 1623.1 638.3C1592.2 620.9 1576 608.2 1558.2 587.5C1550.2 578.1 1536 558.4 1536 556.6C1536 556.2 1537.7 556.2 1539.8 556.4C1541.8 556.7 1547.8 557.2 1553 557.5L1562.5 558L1559.5 555.5C1553.3 550.3 1540.3 548.6 1527.5 551.5ZM1345 775.1C1355.1 780.2 1359.8 788.2 1359.9 800.5C1360 805.9 1359.4 808.7 1357.6 812.6C1354.7 818.8 1353.5 819.7 1351 817.5C1347.2 814.1 1337.5 816.4 1334.9 821.3C1334.2 822.5 1333.4 824.8 1333 826.5C1332.5 829.2 1332 829.5 1328.4 829.8C1324.5 830.1 1324 829.9 1308.6 821.6C1305.9 820.2 1302.6 819 1301.4 819C1298.3 819 1296 821.6 1296 825.1C1296 827.7 1296.2 828 1297.9 827C1301 825.4 1307.2 825.8 1310.4 827.9C1318.6 833.3 1319.3 843.8 1311.8 850.7C1303.3 858.7 1288 857.5 1276 848L1272.2 845L1268.4 847.5C1264.2 850.4 1261.1 850.6 1257 848.5C1251.4 845.6 1248.1 836.1 1246.5 818C1244.7 797.4 1252.8 781.2 1267.3 776.4C1276.3 773.4 1291 774.6 1306 779.5L1310.5 781V787.7C1310.6 791.7 1311.2 795.5 1312 797C1313.4 799.4 1313.5 798.9 1314.8 788.5C1315.5 782.4 1316.4 776.9 1316.9 776.1C1318.1 773.8 1324 772.2 1331.6 772.1C1337.6 772 1339.6 772.5 1345 775.1ZM1377.5 830.6C1379.7 831.8 1382.9 834.6 1384.5 836.9C1387 840.4 1387.5 842.2 1387.5 846.8C1387.5 853.9 1384.6 858.3 1378.1 861.4C1373.9 863.3 1371.9 863.5 1355.8 863.4C1346 863.3 1336.5 862.9 1334.5 862.6C1331.2 862 1331 861.7 1331 858.2C1331.1 847.4 1342.3 834.8 1356.2 829.8C1363 827.4 1372 827.8 1377.5 830.6Z" fill="black"/>
<path d="M1279.8 786.6C1278.3 787.4 1276.3 789.4 1275.5 791C1273.8 794.3 1273.5 805.5 1275.1 806.5C1276.8 807.6 1284.8 798.5 1285.5 794.7C1286.4 789.8 1285.7 785.6 1284 785.3C1283.2 785.2 1281.3 785.7 1279.8 786.6Z" fill="black"/>
<path d="M1409.3 564.4C1407.1 565.2 1403.8 566.7 1402.1 567.9C1399 570.2 1394.5 575.8 1395.2 576.5C1395.4 576.8 1398.1 576.1 1401.2 575C1407.5 572.8 1417.5 571 1423.8 571C1428.5 571 1428.4 571 1426.9 567.7C1426.2 566.2 1424.4 564.8 1422 564.1C1417.3 562.7 1414.6 562.8 1409.3 564.4Z" fill="black"/>
<path d="M2076.6 569C2070.2 576.7 2063.4 594.7 2064.2 602.2C2064.5 605.1 2064.6 605.1 2067.7 599.8C2069.5 596.9 2071.9 590.9 2073 586.5C2074.2 581.6 2075.8 577.9 2077 577C2079.6 575 2081.1 570.5 2080.2 567.9C2079.4 565.9 2079.3 565.9 2076.6 569Z" fill="black"/>
<path d="M1226.2 569.8C1223.6 571.6 1235.2 579.4 1245.6 583C1256.4 586.7 1267.9 588 1304 589.5C1323.5 590.3 1346.1 591.2 1354.3 591.6L1369 592.2V589.9C1369 583.2 1360.5 577 1351.4 577C1348.7 577 1340.9 578.3 1334.2 580C1318.1 583.9 1311.7 583.9 1300.3 579.9C1283.8 574.1 1282.5 573.8 1275.5 573.7C1267.8 573.6 1263.4 575.3 1260.3 579.4L1258.5 581.8L1254.5 577.6C1248.8 571.7 1243.9 569.6 1235 569.2C1230.9 569.1 1226.9 569.3 1226.2 569.8Z" fill="black"/>
<path d="M3894.6 579.8C3895.1 580.3 3897.9 582.3 3900.7 584.4C3906.6 588.6 3915 597.9 3915 600.2C3915 603 3922.7 608.8 3928.5 610.6C3931.6 611.5 3934.3 612 3934.6 611.7C3935.3 611 3901.4 581.1 3898.5 580C3895.3 578.8 3893.2 578.7 3894.6 579.8Z" fill="black"/>
<path d="M2233 592.2C2224.7 619.9 2209.6 649.4 2193.1 670.2C2185.8 679.5 2184 683.3 2184 689.2C2184 693.5 2186.7 700.4 2188.3 700.2C2188.8 700.1 2198.8 680.4 2210.5 656.3C2222.3 632.2 2232.3 612.4 2232.8 612.2C2233.3 612.1 2235.6 615.6 2237.8 620.2C2244.8 634.5 2247 647.2 2245.1 663.6C2244.4 670 2244.3 674.9 2245 677.5C2246.1 682.2 2250.9 687 2254.5 687H2257L2256.4 678.7C2254.8 655.8 2251.3 635.3 2245.5 614.5C2242.3 603.1 2236.2 585 2235.5 585C2235.3 585 2234.2 588.3 2233 592.2Z" fill="black"/>
<path d="M875.3 588.7C872.3 589.9 860 633.5 856.1 657.2C851.2 686.2 848.9 720.8 850.9 733.7C853.3 749.3 860.1 760 867.5 760C872 760 878.1 756.9 881 753.3L883.2 750.5L879.2 749.8C873.5 748.9 869.9 746.8 865.6 742C859.6 735.3 858.5 732 858.6 720C858.7 711 860.3 700.9 869.9 650.2C876.1 617.5 880.9 590.2 880.6 589.4C880.1 588 877.7 587.7 875.3 588.7Z" fill="black"/>
<path d="M2094.1 597.5C2089.7 602.6 2088.7 607.6 2089.4 621C2090.7 643.6 2087.3 651.4 2062.5 681.5C2050.5 696.1 2044.3 707.2 2043.3 715.9L2042.7 721.3L2046.1 719.4C2051.6 716.3 2063.2 704.2 2068.9 695.5C2081.1 677 2091.6 651 2096 628.4C2098.5 615.9 2099.9 594 2098.3 594C2097.7 594 2095.8 595.6 2094.1 597.5Z" fill="black"/>
<path d="M73 596.2C73 615 71.8 642.9 70.5 653.5C66.3 689.3 58.1 721.5 44.8 753.7C39.2 767.5 39.7 767.1 29.5 764.5C21.3 762.3 12.7 757.5 6.1 751.3C3.1 748.4 0.4 746 0.3 746C0.1 746 0 747.7 0 749.8C0 757.1 6.9 764.7 20.4 772.5C29.6 777.7 38 787.3 38 792.4C38 793.5 38.8 793.7 41.4 793.3C46.3 792.5 52.9 795.9 56.1 800.9C57.5 803.1 59.4 807.7 60.3 811.2C61.9 817.1 85.6 914.9 97.2 963C100 974.8 102.6 984.9 103.1 985.3C104.9 987.4 107.2 970.6 108 949.5C108.9 926.4 109.9 920.9 114.4 911.6C118 904.3 122 899.8 127.8 896.7L132.8 894L134.8 897.2C141 907.4 142.7 925.9 139.1 943.5C137.5 951.2 121.4 1005.9 114 1028.5C113.1 1031.3 113.1 1031.4 114.6 1029.5C117.7 1025.5 127.1 1005.1 130.4 994.9C132.3 989.2 134.8 979.8 136 974C138.7 961.6 141.7 954.7 146.6 949.7C150.6 945.7 154.8 944.3 157.9 946C160.5 947.3 160.5 946.8 158 939.4C154.8 930.4 150.3 911.8 148.3 899.5C145.7 883.7 145.9 845.9 148.6 830.8C149.7 825 150.2 820.4 149.8 820.6C148.3 821.5 144.3 830.4 142.2 837.2C139.1 847.1 137.9 854.8 136.6 872.5L135.5 888.5L131 888.8C120.7 889.5 113 881.4 113 869.9C113 852.9 140.5 744.5 149.3 727.1C151.5 722.5 154.7 719.7 158.8 718.5C160.7 718 161 718.2 161 720.5C161 724.2 163.3 729.1 166.4 731.9C167.8 733.3 169.1 734.2 169.3 733.9C170.7 732.3 165.9 620 164 609.3C163.1 604.3 160.6 599 159 599C158.6 599 146.9 655.8 133 725.2C111.6 832.7 107.7 853.2 107.3 863C106.7 876 108.2 884.5 112.5 893.1C115.5 898.9 115.2 902.5 111.7 905.7C102.3 914.3 90.8 909.2 86.4 894.5C85.6 891.8 78.6 862 70.9 828.5C58.7 775.6 56.9 766.6 57.2 760.8C57.5 755 58 753.6 60.4 751.1C63.3 748.1 63.3 748.1 66.3 749.8C67.9 750.7 70.7 753.2 72.5 755.3L75.7 759.1L76.4 745.3C76.7 737.7 77.3 717.2 77.6 699.7L78.3 667.8L81.4 668.4C94.4 670.9 102.4 689.4 100 711.5C98.3 726.6 98.8 741.3 101 747.3C102.1 750.3 103.9 753.5 105 754.5C107 756.3 107 756.2 107.1 746.9C107.6 707.4 103.7 680.6 89.9 628.4C83.7 604.6 81.7 599.9 77 597.5C74.2 596.1 73 595.7 73 596.2Z" fill="black"/>
<path d="M1511.2 606.5C1509.3 611.6 1507.7 614.1 1503.7 617.7C1471.9 646.5 1446.8 679.1 1428.2 715.7C1419.8 732.4 1419.6 733.3 1425.7 728.1C1435 720.3 1444.3 707.5 1458.5 683C1474.5 655.2 1484.5 643.4 1500.3 633.6C1521.5 620.4 1544.3 619.5 1557.8 631.4C1560 633.3 1560 633.8 1560 654.8V676.2L1555.8 675.5C1550.3 674.6 1544.4 671.6 1540.1 667.6C1538 665.7 1536.6 664.9 1536.3 665.7C1536.1 666.4 1535 668.1 1533.8 669.5C1527.5 677.6 1515.3 676.4 1510.3 667.2C1509.3 665.5 1508.3 664 1508 664C1507.2 664 1493.9 685.2 1494.3 685.7C1495.2 686.5 1532.9 686 1543 685C1552.8 684 1574.9 680.5 1577.7 679.5C1578.6 679.2 1577.7 677.1 1575 672.9C1567.9 661.9 1564.2 649.3 1563.8 635.1L1563.5 625.7L1541.5 617.6C1529.4 613.1 1518.9 609.1 1518.2 608.6C1517.4 608.1 1516.1 606 1515.2 603.9L1513.5 600L1511.2 606.5Z" fill="black"/>
<path d="M660.3 614.5C654.8 628.9 652.9 640.1 650.5 674.4C648.7 699.1 646.3 714.8 642.6 726.3C637.2 742.7 628.2 756.8 618 764.6C614.7 767.2 611.8 770.1 611.5 771.1C611.2 772 611.9 775.5 613.1 778.7C616.4 787.8 617 791.4 616 795C614 801.9 609.6 803.8 604.7 800C600.2 796.4 596.3 795.6 593.5 797.4C589.3 800.2 590.3 801.8 596.5 801.9C599.5 801.9 603.1 802.5 604.4 803.2L606.8 804.5L601.4 822C591.1 855.2 589.4 864.6 592 874C594.1 881.5 603.1 889 610.1 889C613.2 889 613.2 889 611.6 886.7C604.1 876.3 601.8 864.5 604.3 849.4C605.2 843.9 607.1 835.9 608.5 831.5C610 827.1 623.1 795.2 637.8 760.6L664.5 697.6L665.1 704.1C665.5 707.6 665.8 715.7 665.9 722.1C665.9 728.5 666.3 737.8 666.6 742.8C667.3 751.5 667.4 752 669.6 752C673.4 752 676 747.6 676 740.9C676 735.9 664.6 612.3 663.7 608C663.5 607.2 662 610.1 660.3 614.5Z" fill="black"/>
<path d="M3499 608.4C3499 608.8 3495.6 629.8 3491.5 655.2C3487.4 680.6 3484 701.9 3484 702.5C3484 703.2 3485.5 704.1 3487.3 704.4C3493.6 705.6 3498.7 713.4 3497.5 719.9C3496.3 726.2 3493.4 730.4 3467.6 762.4C3453.5 779.8 3442 794.3 3442 794.6C3442 794.8 3443 795 3444.3 795C3449.1 795 3456.5 787.5 3462.3 776.6C3468.6 764.8 3479.5 756.9 3487.4 758.4C3489.2 758.8 3491.3 759.7 3492 760.5C3493.7 762.6 3495 762.4 3495 760.1C3495 756.7 3499.8 739.6 3502.9 732.3L3505.9 725L3503.5 715.8C3497.6 692.2 3497.7 670.3 3504 647L3505.2 642.5L3508 650.1C3514.7 668.5 3524.6 684.6 3537.5 697.8L3545.9 706.5L3543.1 697C3537.5 677.8 3529.2 657.8 3518.9 638.9C3512 626.1 3499 606.3 3499 608.4Z" fill="black"/>
<path d="M3454.8 614.3L3444 615.2L3444.8 617.9C3446.1 622.7 3445.5 633.3 3443.6 636.8C3442.7 638.6 3439.4 643 3436.4 646.6C3433.4 650.1 3431.2 653.5 3431.5 654C3432.6 655.7 3438.8 655.1 3443.6 652.9C3450.2 649.8 3463.8 633.5 3473.9 616.7L3476.2 613L3470.8 613.2C3467.9 613.2 3460.7 613.7 3454.8 614.3Z" fill="black"/>
<path d="M3237.8 626.9C3231.9 633.3 3224.6 646.5 3223.5 653L3222.9 656.5L3228.8 650.4C3232 647 3236.1 641.8 3237.8 638.9C3241.1 633 3244.4 623.8 3243.8 621.9C3243.6 621.3 3240.9 623.5 3237.8 626.9Z" fill="black"/>
<path d="M505.8 625.2C502.7 627.6 493.9 652.4 489.6 671C483.9 695.4 483.5 699.8 483.4 740C483.3 776.6 483.3 777.6 481 783.4C479.5 787.3 476.7 791.5 472.9 795.6C466.3 802.7 465 806.2 465 817.2C465 823.3 473.7 891.4 475.4 899.2C475.8 900.8 475.2 900.9 470.6 900.4C457.4 898.8 446 909.7 442.4 927.3C439.5 941.1 440.6 976.9 444.6 1000.5C446.1 1009.2 450.7 1029 451.5 1029.8C452.1 1030.4 453.8 1020 454.5 1011.9C454.9 1007.7 454.4 994 453.5 980.9C450.9 944.8 452.2 924.6 458.1 911.8L459.2 909.3L467.3 910.6C471.8 911.4 475.8 912 476.1 912C476.4 912 477.5 914.8 478.6 918.2C480.4 924.1 486.5 935 489 936.5C492.6 938.7 492.9 930.1 489.6 914.8C485.3 895 483.9 883 483.3 862C482.5 831.9 484.7 812.1 492.2 783L496.1 767.5L494.9 748.6C492.5 710.7 496.3 674.9 506.7 639.7C508.6 633 510.3 626.8 510.4 626C510.5 624.1 507.9 623.6 505.8 625.2Z" fill="black"/>
<path d="M396.6 687C385.2 719.4 375.7 746.7 375.6 747.7C375.5 748.9 376.7 749.7 379.4 750.5C382.5 751.4 383.6 752.3 384.1 754.4C385.7 760.4 387.2 785 386.5 795.5C385.2 816.8 383.4 826.5 374 861.5C371.8 870 371.1 874.7 371 882.2C371 887.5 371.3 892.1 371.8 892.4C372.2 892.6 379.7 872.8 388.4 848.4L404.3 804L400.7 800.1C396.3 795.3 394 788 391 770.4C388.3 754.8 388.1 738.5 390.4 728.7C392.6 719.5 397.5 709.2 405.7 696.5C411.8 687.1 412.9 686 416 685.4C423.3 684.2 423.3 684.2 422.7 679.1C422.4 676.6 421.3 664 420.4 651.2C419.4 638.5 418.4 628 418.1 628C417.8 628 408.1 654.6 396.6 687Z" fill="black"/>
<path d="M2057.4 637.5C2054.5 643 2050.6 651.7 2048.5 656.9C2041.9 673.7 2042 674.8 2049.5 667.9C2057.8 660.3 2063.4 645.5 2062.8 633.3L2062.5 627.5L2057.4 637.5Z" fill="black"/>
<path d="M965.1 634.7C963.8 635.9 960 644.9 954.4 660.5C946.9 681.6 919 763.6 919 764.6C919 765.9 925.3 761.5 927.4 758.7C930.4 754.8 935.5 743.9 936.5 739.2C937.3 735.3 937.9 735.3 942.9 738.6C955.1 746.6 958.5 763.3 953.6 791.3C951 806.2 950.2 818.3 951.9 816.4C953.4 814.9 959.7 793.8 962.1 782.3C963.3 776.2 964.4 767.6 964.4 762.5C964.5 750.3 962.7 746.2 955.1 741.5C948.8 737.7 946.5 734.5 945 727.3C942.8 717.1 945.1 710 958.5 685.5C963.4 676.7 963.5 676.3 963.4 668C963.4 663.3 963 656.9 962.6 653.8C961.7 648.1 961.8 648 965.3 644.5C969.3 640.5 973.6 639.8 976.4 642.9C978.1 644.8 978.1 645.2 976.5 652.2C973.8 663.4 973.4 681.7 975.5 694.1C977.3 705.2 982 719.8 985.2 724.3C987 726.8 990.8 729.6 991.5 728.8C991.7 728.6 990.8 725.3 989.5 721.5C986.2 711.2 985.1 702.4 984 677.6C982.6 646 981.2 640.3 973 634.7C969.9 632.5 967.8 632.5 965.1 634.7Z" fill="black"/>
<path d="M3266.3 650C3260.7 661.2 3259.4 666.8 3257.5 687.9C3254.8 717.4 3252.8 724.3 3241.1 746C3228 770.1 3225.9 779 3229.9 793.1C3232.5 802.4 3232.6 808.5 3230.1 818.2C3227.7 827.3 3222.4 838.2 3212.9 853.1C3197.6 877.1 3192.5 893.3 3196 906.2C3197.3 910.7 3197.6 910.9 3201.7 909.8C3204.8 909 3204.9 909 3204.9 902.2C3204.9 891.9 3207.3 886 3219.1 866C3230.6 846.5 3235.4 833.4 3245.9 793.5C3257.5 749.1 3263.4 722.2 3266.9 697C3269.2 680.6 3271.3 652.8 3270.8 646L3270.5 641.5L3266.3 650Z" fill="black"/>
<path d="M1051 648.1C1046.7 652.5 1044.2 657.8 1041.4 668.6C1037.8 683 1035.8 700 1035.7 716.5C1035.7 734.4 1037.6 752.9 1039.7 753.7C1042.4 754.8 1045.9 752.2 1047 748.3C1047.5 746.2 1049.6 724.7 1051.5 700.5C1053.4 676.3 1055.2 653.9 1055.6 650.7C1056.3 644.1 1055.5 643.6 1051 648.1Z" fill="black"/>
<path d="M1988.7 649.1C1986.5 654.5 1985 662.4 1985 669C1985 673.9 1984.7 675 1983.4 675C1982.1 675 1981.9 675.6 1982.5 677.7C1982.8 679.3 1983.9 681.3 1984.8 682.3C1986.4 684.1 1986.6 684.1 1989.7 680.5C1997 672 1998.2 655.4 1992.1 647.9L1990.2 645.5L1988.7 649.1Z" fill="black"/>
<path d="M1652 649.4C1652 649.8 1655.2 654 1659 658.8C1675.7 679.5 1688.1 699.4 1694.6 715.5C1697.5 722.8 1699.1 725.4 1703.1 729.2C1713.6 738.9 1726 743.4 1741.8 743.4C1747.5 743.3 1751.7 743.6 1751.2 743.9C1750.7 744.2 1741.2 750.3 1730.2 757.4C1716.8 765.9 1710 770.8 1710 772C1710 775.9 1717.1 781 1722.6 781C1724.9 781 1725 780.7 1725.1 774.7C1725.1 771.3 1725.6 766.9 1726.3 765C1727.5 761.7 1727.9 761.4 1739.2 757.9C1762.1 750.6 1784.5 747 1807.5 747C1821.1 747 1822 747.1 1824.6 749.3L1827.3 751.6L1827.1 785.8C1826.9 823.9 1826.4 827.3 1820.8 832.7C1816.3 836.9 1811.4 838.2 1806.4 836.3C1792.5 831.1 1790.6 830.7 1779 830.7C1765.9 830.8 1748.6 833.2 1742.6 835.9C1740.3 836.9 1736.7 839.3 1734.6 841.3C1731.2 844.5 1730.1 845 1725.8 845C1723 845 1718.1 844.3 1714.9 843.5C1708.5 841.8 1701.7 842.7 1700.7 845.4C1700.4 846.1 1701.8 848.3 1703.8 850.2C1713.8 859.5 1723.5 861.9 1760.5 864C1771 864.6 1782.1 865.3 1785.3 865.6C1789.3 866 1791 865.8 1791 865C1791 863.2 1784.7 861.1 1776.3 859.9C1760 857.8 1754 854.5 1754 847.9C1754 845.5 1754.8 844.6 1759.1 842.4C1766.7 838.6 1775.4 838.2 1792.5 841C1807.9 843.4 1814.3 843.2 1822.3 839.8C1828.6 837.1 1832.7 832.3 1833.4 826.8C1833.7 824.4 1834.9 808.5 1836 791.5C1837.1 774.4 1838.3 758 1838.6 754.8L1839.2 749.2L1842.8 750.7C1849.6 753.5 1860.7 749.9 1866 743.3L1868.2 740.5L1863.8 739.9C1856.1 738.8 1817.3 737 1780.5 736C1743.4 735 1736.7 734.3 1724.6 730.1C1716.4 727.2 1710.1 722.9 1703.3 715.6C1698.6 710.7 1695.4 705.5 1687.5 689.9C1678 671.4 1677.2 670.1 1669 662C1661.8 654.7 1652 647.6 1652 649.4Z" fill="black"/>
<path d="M575.4 651.4C568.5 654.4 562.6 664.6 559.4 679C558.6 682.6 554 717.4 549 756.5C544.1 795.5 539.8 828.8 539.5 830.4L539 833.4L541.5 831C545.7 827.1 551.2 818 553.8 811C558.9 796.9 559.3 792.4 559.5 749C559.5 713.8 559.8 707.7 561.3 702.5C563.4 695 570.2 681 572.8 678.6C574.7 676.9 574.8 677.1 576.1 685.7C577 691.4 577.5 703.4 577.5 719.8C577.5 744.6 577.5 745 579.6 745C582.6 745 585.8 741.5 586.6 737.5C586.9 735.5 586.1 716.3 584.6 694.7C583.2 673.1 582 654.3 582 652.7C582 649.6 580.4 649.3 575.4 651.4Z" fill="black"/>
<path d="M887.3 662.3C888.2 673.1 889.9 679.3 894.4 688.4C899.1 697.6 901.2 698.9 905.5 694.6C909.2 690.9 908.9 685.9 904.1 676.4C900.1 668.4 889.9 655 887.8 655C887 655 886.9 657.2 887.3 662.3Z" fill="black"/>
<path d="M234.7 663.5C225.9 666.8 217.7 676.3 214 687.5C213 690.8 210.9 700 209.4 708C205.8 728.2 203.3 735.5 191.8 759.5C186.3 771 180.4 783.6 178.8 787.5C171.7 804.5 169.8 821.7 172.3 847C176.5 888.9 176.2 886.9 177.7 883.1C180 877.5 181.8 860.1 182.9 833C183.6 817.7 184.6 804.7 185.5 800.5C188.3 788.1 193.3 775.5 217 721.5C229.8 692.3 240.9 667 241.6 665.2C243 662.1 242.9 662 240.8 662.1C239.5 662.1 236.8 662.8 234.7 663.5Z" fill="black"/>
<path d="M331.5 663.6C327.4 667.7 325.8 673.1 325 685.9C324 699.8 323.5 702 318.8 708.7C313.1 717.1 311.6 722.3 311.7 734C311.7 741.3 312.4 746.9 313.8 752.1C316.6 762.4 323.2 779.2 324.7 779.7C326.6 780.4 329.3 775.3 329.3 771.1C329.3 768.6 327.6 763.7 324.6 757.2C318.8 744.9 317.4 737 319 726.9C321.1 712.7 324.8 707.7 331.7 709.5C336.9 710.8 337 711.1 337 728.6V745H341.5C344.5 745 346 744.6 346 743.7C346 743 343.5 724.5 340.5 702.5C337.5 680.5 335 662.4 335 662.2C335 661.4 332.9 662.2 331.5 663.6Z" fill="black"/>
<path d="M2154.7 673.7C2151.9 683.8 2151 691.1 2151 702.3C2151 713.3 2153.6 729.8 2156.4 736.4L2157.8 739.5L2160.5 733.5C2163.6 726.7 2166 715.3 2166 707.5C2166 697.2 2159.4 668 2157 668C2156.6 668 2155.6 670.6 2154.7 673.7Z" fill="black"/>
<path d="M2311.6 678.1C2310.2 679.2 2308.1 681.8 2307.1 683.8C2304.7 688.6 2279.3 770.8 2277.9 778.3C2276.7 785.3 2277.3 788.9 2281.1 795.6C2284.9 802.4 2288.5 812.1 2290.2 820.1C2291.1 824.8 2291.5 837.8 2291.5 868.5C2291.5 908.6 2291.6 910.9 2293.7 918.2C2295.8 925.4 2300.4 936 2301.6 936C2301.9 936 2303.4 935.3 2305 934.5C2307.7 933.1 2307.8 932.7 2307.4 927.8C2306.6 918.5 2296 752.4 2296 748.6C2296 744 2297.6 743.9 2304.8 748C2315.5 754.2 2319.4 763.4 2318.5 780C2317.9 789.2 2318.1 790.9 2319.8 794C2321.9 797.9 2327.2 801.5 2329.5 800.6C2330.8 800.2 2330.7 799.5 2329.4 795.8C2324.8 782.7 2318.9 753.9 2317 735C2315.8 723.2 2315.3 700.3 2315.9 686C2316.1 680.4 2315.9 676.5 2315.3 676.3C2314.8 676.1 2313.1 676.9 2311.6 678.1Z" fill="black"/>
<path d="M3328 678.8C3328 679.3 3323.4 712 3317.9 751.6C3308.9 815.4 3307.7 825.2 3307.6 838.5C3307.5 852.3 3307.8 854.6 3310.8 866.8C3315.8 887.1 3315 898.3 3308.1 904.5C3305.5 906.8 3296.9 907.2 3293.3 905.2C3291.2 904 3291 903.2 3291 894.2L3290.9 884.5L3287.4 888.5C3282 894.5 3276.8 902.5 3272.1 911.7C3269.9 916.3 3268 920.2 3268 920.5C3268 920.8 3269.7 919.2 3271.7 916.9C3276.7 911.4 3281.7 909 3288.3 909C3296.1 909 3300.2 912.5 3302.1 921C3303.1 925.3 3299.2 965.4 3294.9 995.4C3289.8 1031.4 3282.8 1059.8 3272.9 1084.8C3271.3 1088.8 3270 1092.3 3270 1092.5C3270 1092.8 3273.6 1093 3278 1093H3285.9L3286.6 1089.2C3287.8 1082.6 3291.2 1074.7 3295.6 1067.9C3300.6 1060.3 3302.5 1055.4 3304 1046.7C3304.6 1043.3 3307.7 1003.8 3311 959C3314.3 914.2 3317.7 869.8 3318.5 860.5C3322.5 815.8 3327.3 788.7 3336.1 762.3L3340.1 750.1L3336.1 746.4C3328.5 739.6 3327.2 728.9 3331.6 708C3334.4 694.7 3334.3 687.5 3331.5 682C3330 679 3328 677.2 3328 678.8Z" fill="black"/>
<path d="M2384.3 683.2C2378.5 686 2374 702.7 2373.3 724.7C2373 733.6 2373 741.6 2373.3 742.4C2373.9 743.8 2374.4 743.7 2377.3 742L2380.7 740L2380.9 730.9C2381.1 719.3 2383.2 708.3 2387.7 694.7C2390.7 685.7 2391.1 683.7 2389.9 682.9C2388.1 681.8 2387.1 681.9 2384.3 683.2Z" fill="black"/>
<path d="M762.4 688.8C750.1 697.7 741.1 715.7 741 731.2C741 736.3 743 745.4 744 744.3C744.4 743.9 748.7 733.4 753.5 721C765.5 690.1 767 686 766.6 686C766.5 686 764.5 687.3 762.4 688.8Z" fill="black"/>
<path d="M3431.7 723.7C3420.4 744.5 3410.4 763.2 3409.5 765.2C3407.3 770.7 3407.6 774.8 3410.8 779.4C3415.4 786.1 3414.8 791.7 3403.2 846.3C3397.6 872.7 3393 894.9 3393 895.8C3393.1 898.6 3405.2 884.7 3409.8 876.7C3412 872.8 3415.2 865.9 3416.7 861.5L3419.5 853.5L3419.2 828C3419 799.8 3420 785.6 3423.5 768.8C3427.5 749.5 3433.3 733.4 3444.1 712.2C3450.8 699.1 3454 691.6 3454 689.3C3454 687.5 3453.6 686 3453.2 686C3452.7 686 3443.1 703 3431.7 723.7Z" fill="black"/>
<path d="M2102 691.8C2102 694.5 2096 708.1 2092.4 713.7C2086.6 722.7 2082.3 727.5 2070.3 737.5C2054.6 750.9 2049 758.1 2043.9 772.1C2040.7 780.8 2039.1 790 2040.8 790C2044 790 2048.7 783.7 2054.8 771.1C2062.3 755.6 2066.5 750.8 2084.1 737.3C2089.9 732.9 2095.9 727.8 2097.4 726C2104.1 717.9 2108 705.6 2106.1 698.4C2105 694.2 2102.1 689.5 2102 691.8Z" fill="black"/>
<path d="M431.8 695C427.2 698.8 424.5 705.4 425.3 711.2C426.2 718.2 455.4 775 458 775C459.3 775 460.3 768.5 459.7 763.5C459.1 757.6 453.3 745.7 446.5 735.9C434.6 719.1 430.9 704.9 435.5 693.7C436.5 691.4 436 691.5 431.8 695Z" fill="black"/>
<path d="M1124.2 707.8C1119.6 716.3 1118.2 720.9 1117 730.6C1115.8 739.9 1116.5 742.3 1121.3 746.9L1123.9 749.2L1126 742.4C1128.5 734.7 1129.9 711.2 1128.3 705.1L1127.4 701.7L1124.2 707.8Z" fill="black"/>
<path d="M249.8 709C246.1 715.3 243 726.1 242.4 735C241.7 744.1 243.7 754.6 247.8 763.4L250.6 769.5L252.6 766.5C254.4 763.8 254.5 762 254.2 742C254 730.2 253.5 716.9 253.1 712.5L252.5 704.5L249.8 709Z" fill="black"/>
<path d="M1987 719.2C1987 725.4 1986.7 734.2 1986.3 738.8L1985.7 747L1979.8 750.2C1972.9 753.9 1965.1 761.3 1960.4 768.6C1956.8 774.1 1951.7 788.1 1952.2 790.7C1952.6 792.6 1972.7 771.9 1982.6 759.5C1997.4 741.2 2000.7 724.7 1992.3 712.6C1987.5 705.9 1987 706.5 1987 719.2Z" fill="black"/>
<path d="M2127.4 717.7C2126.6 724.1 2128.1 736.8 2130.3 742.1L2131.6 745.5L2133.3 740.6C2136.6 731.1 2134.8 717.4 2129.7 713.2C2128.3 712 2128.1 712.6 2127.4 717.7Z" fill="black"/>
<path d="M3159.8 715.7C3156.5 719.3 3153.9 727 3152.5 737.7C3148.8 764.1 3144.9 777.6 3135.2 796.5C3124.9 816.6 3110.7 836.1 3087.3 862.2C3080.5 869.7 3075 876.1 3075 876.4C3075 877.8 3079.9 876.8 3084.8 874.5C3092.5 870.9 3099.4 863.2 3108.2 848.3C3112.5 841.1 3117.9 833.1 3120.4 830.3C3125.4 824.7 3132.6 820.5 3138.7 819.5C3142.7 818.9 3143 819 3143.6 821.5C3144.6 825.5 3143.5 836.8 3141.5 842.5C3140.6 845.2 3137.4 853 3134.4 859.8C3126.9 876.8 3126.1 880.4 3126.1 897.8C3126.1 914 3124.5 925 3120.5 937.4C3114.6 955.6 3107.6 967.3 3092.2 985.4C3076.8 1003.4 3073.2 1012.3 3078.1 1021C3079.4 1023.2 3082.4 1026.1 3085.6 1028.1C3098.5 1036.2 3101.6 1038.8 3104.5 1044.2C3106.9 1048.5 3107.4 1050.7 3107.5 1056.1C3107.5 1059.8 3107.8 1062.6 3108.3 1062.3C3108.7 1062.1 3110 1060 3111.2 1057.7C3112.9 1054.5 3113.5 1051.8 3113.5 1046C3113.5 1035.5 3111 1031.4 3099.4 1023.5C3089.3 1016.6 3087.1 1014 3086.3 1008.2C3085.2 999.7 3089.6 995 3098.9 995C3104.9 995 3109 996.7 3109 999.2C3109 1000.2 3109.5 1001 3110 1001C3110.6 1001 3111 1000.8 3111 1000.6C3111 1000.4 3113 993.3 3115.4 984.8C3123.4 957 3129.1 927 3132.4 895C3133.3 887 3134.7 878.4 3135.6 875.8C3137.3 870.7 3142.8 865 3146 865C3147 865 3148.2 864.5 3148.6 863.9C3149.9 861.7 3166.1 726.6 3165.5 722.3C3165.2 720 3164.1 717.1 3163.2 716C3161.5 713.9 3161.4 713.9 3159.8 715.7Z" fill="black"/>
<path d="M3784.8 743.3C3763.3 782 3761.5 788.9 3769.4 800.4C3773.7 806.7 3774.1 812 3770.9 818.7C3767.6 825.4 3761.3 830.3 3749.3 835.1C3737.7 839.7 3731.6 843.8 3728.7 848.7C3727.7 850.5 3726.2 855.7 3725.4 860.2C3723.5 871.6 3721.4 876.6 3717.4 879.6C3713.6 882.6 3706.4 883.8 3703.2 882.1C3702.1 881.5 3698.8 876.9 3696 871.9C3689.5 860.7 3681.1 849.3 3673.1 840.9L3667 834.5L3670.5 842.2C3675.2 852.5 3679.2 865.1 3682 878C3684.3 889.1 3686.5 894.3 3690 897.5C3691.7 899.1 3693.4 899.4 3698.3 899.2C3707 898.9 3712.1 902.6 3715 911.4C3718.1 921 3714.2 929 3698.8 944.1C3685.4 957.3 3683.1 961.3 3683 970.5C3683 978.6 3685.5 983.7 3703.6 1011.6C3722.6 1041 3722.7 1041.2 3726.5 1037C3729.3 1034 3734.2 1034.4 3738.4 1038C3744.8 1043.6 3744 1049.5 3735.3 1061.5C3732.5 1065.3 3729.8 1070 3729.1 1071.9C3727.6 1076.4 3727.8 1083.8 3729.4 1087.5L3730.7 1090.5L3735.9 1082.5C3742.1 1072.8 3754.7 1048.4 3759 1037.5C3767.9 1015.4 3775 989.8 3775 980C3775 973.4 3773.3 968.5 3769.3 963.2C3767 960.2 3766.6 960 3765.8 961.5C3765.2 962.4 3764.6 971.1 3764.4 980.8C3764.1 990.5 3763.5 1000.7 3762.8 1003.5C3760.5 1013.9 3753.6 1023.6 3746.4 1026.6C3741.8 1028.5 3733.6 1028.4 3729.2 1026.3C3723.6 1023.6 3717.4 1016.7 3714.9 1010.2C3712.6 1004 3711.9 993.5 3713.3 984L3714.1 978.5L3707.5 985C3700.2 992.2 3699.5 992.3 3695.2 985.9C3693.1 983 3692.9 981.6 3693.3 975.9C3693.9 966 3697.3 960.6 3711.2 947.1C3728.7 930.1 3730.2 925.4 3723 908.6C3719.8 901 3719 898.1 3719 893C3719 887.3 3719.3 886.5 3722.4 883.4C3726.4 879.4 3730.7 878.9 3735.7 881.9L3738.9 883.9L3758.1 854.7C3768.7 838.6 3778.1 823.7 3779.1 821.5C3782.1 815 3781.5 810.8 3776.3 799.6C3772.1 790.7 3771.5 788.7 3771.5 782.8C3771.5 777.1 3771.9 775.8 3773.9 773.6C3777.3 769.9 3783 768.4 3786.9 769.9C3790.3 771.4 3791.6 774.2 3792.5 782.5C3793.7 793.8 3794.7 795.3 3797.5 790C3799.4 786.3 3799.4 780.9 3797.4 774.5C3794.8 765.8 3795.4 758.4 3800 745.3C3802.2 738.8 3804.3 731.2 3804.6 728.5C3805.2 723.4 3803.4 716 3801.5 715.3C3801 715.2 3793.4 727.7 3784.8 743.3Z" fill="black"/>
<path d="M1956.1 724.4C1953.9 728.4 1948.2 737.5 1943.5 744.6C1938.8 751.6 1935 757.8 1935 758.2C1935 759.8 1939.7 758.9 1942.8 756.7C1947.7 753.3 1965 727.4 1965 723.5C1965 720.7 1962.6 717 1960.7 717C1960.4 717 1958.3 720.3 1956.1 724.4Z" fill="black"/>
<path d="M2217.4 739.7C2203.9 767.7 2202 775.1 2202 799.4C2202.1 812.9 2202.2 814.3 2203.5 812.5C2206.2 809.1 2207.1 803.9 2208.5 784C2210.1 761.4 2211.4 756.5 2218.8 747C2227.6 735.6 2229 732.3 2227.4 726.2C2227 725 2226.4 724 2225.9 724C2225.5 724 2221.6 731.1 2217.4 739.7Z" fill="black"/>
<path d="M411.5 738.1C410.7 741.3 421.2 787.5 423.9 792.7C426.8 798.5 430.2 801.2 435.4 801.7C437.9 802 440 802 440 801.7C440 801.4 438.3 797.4 436.3 792.8C434.3 788.2 428 773.5 422.4 760C414.2 740.5 412 736.1 411.5 738.1Z" fill="black"/>
<path d="M2446.3 745.7C2437.3 767 2437.1 775.3 2444.5 815.5C2450.3 847.8 2449.9 845.9 2451.2 843.6C2452.3 841.6 2452.3 788.9 2451.1 754.5L2450.5 735.5L2446.3 745.7Z" fill="black"/>
<path d="M3903.5 743.6C3901.4 754 3897.7 763.7 3889 781.3C3879.8 799.8 3874.1 814.4 3871 827.7C3870.4 830.6 3870 833.4 3870.2 834C3870.8 835.9 3886.6 811.1 3892.5 798.9C3895.6 792.5 3900.3 781 3903 773.4C3906.6 763.1 3908 760 3908.5 761.5C3914.7 778.9 3928.5 794.5 3944.4 801.9C3955.8 807.3 3956.1 807 3948.1 798.4C3937.3 786.9 3922.4 767.9 3913.4 754.4C3903.7 739.6 3904.2 740.1 3903.5 743.6Z" fill="black"/>
<path d="M2164.7 761.8C2154.9 782.6 2146.8 808.7 2139.5 843.5C2137.6 852.8 2135.7 861.5 2135.5 862.7C2135.1 864.5 2135.7 865.3 2139.1 867C2143 869 2143.3 869.1 2145.1 867.4C2146.1 866.5 2147.4 864.1 2148 862.1C2149.6 856.1 2170.9 750.6 2170.6 750.3C2170.4 750.1 2167.8 755.3 2164.7 761.8Z" fill="black"/>
<path d="M1575 753.5C1566.1 756.4 1558.9 765 1558.8 772.9C1558.8 774.9 1559.6 778.8 1560.5 781.5C1562.8 788 1563.6 803.6 1562 810.9C1560.3 818.7 1556.1 827.5 1551.2 833.7C1546.5 839.5 1546.3 839.1 1556.2 840.9C1568.9 843.2 1591.4 844.1 1605.7 843.1C1625.7 841.6 1625.9 841.5 1625.4 837.6C1625.1 835.9 1623.1 817.7 1621 797.1C1618.2 771.4 1616.5 758.9 1615.5 757.4C1613.3 754.1 1608.1 752.9 1593 752.4C1582.9 752.1 1578.4 752.4 1575 753.5ZM1603.6 762.1C1606.8 762.7 1609.9 763.6 1610.4 764C1611.2 764.8 1615.8 818.7 1616 828.2C1616.1 834.8 1609.2 836 1603 830.4C1599.8 827.5 1598.6 825.3 1596.6 818.6C1594.4 811.5 1591.8 807 1589.8 807C1589.5 807 1589 812.5 1588.6 819.2C1587.9 833 1587.3 834 1580.8 834C1577.9 834 1576.1 833.2 1573.3 830.7C1570.1 827.7 1569.6 826.6 1569.2 821.4C1568.6 814.8 1572 766.7 1573.1 764.8C1575 761.8 1593 760.1 1603.6 762.1Z" fill="black"/>
<path d="M1441.6 754.7L1434.8 755.1L1435.4 758.8C1439.2 780.9 1439.4 783.2 1439.5 807.5C1439.5 836.6 1439.4 836.9 1431.1 839.4C1424.2 841.4 1422 842.8 1422 844.9C1422 847 1424.2 847.2 1468 849.1C1496.8 850.3 1500.6 849.9 1505.7 845.5L1508.5 843.1L1506.1 836.8C1500.5 821.7 1499.7 817.2 1499.6 801.5C1499.5 784.9 1501.2 776.1 1506.9 763.5L1509.8 757.1L1507.2 756.6C1497.7 754.6 1462.7 753.7 1441.6 754.7ZM1460.3 760.7C1466.8 775.5 1469.4 787.9 1469.5 805C1469.5 818.8 1467.9 830.8 1465.4 834.7C1463.5 837.7 1458.1 838.6 1454.3 836.6C1449.4 834.1 1447.8 829.3 1446.8 814C1445.8 798.9 1447 780.8 1449.6 772C1451.5 765.2 1456 755 1457 755C1457.4 755 1458.9 757.6 1460.3 760.7ZM1493.5 767.2L1496 768.3V801.6C1496 834.9 1496 834.9 1493.8 836.4C1492.6 837.3 1490 838 1488.2 838C1483.8 838 1478.6 833 1477.1 827.4C1475.5 821.1 1472.6 785.9 1473.4 781C1475.1 769.7 1484.7 763.1 1493.5 767.2Z" fill="black"/>
<path d="M2235.9 756.2C2233.7 760.4 2235.4 769.8 2240.8 782.5C2245.4 793.4 2247.4 800.4 2249.8 813C2250.7 817.4 2250.7 817.3 2251.4 808.9C2252.3 798.9 2251.7 791 2248.9 779.1C2246.9 770.3 2239.9 754 2238.1 754C2237.5 754 2236.5 755 2235.9 756.2Z" fill="black"/>
<path d="M3631.5 760.4C3630.6 761.8 3629.6 765.5 3629.3 768.7C3628.9 773.7 3629.2 775.3 3631.7 780C3633.3 783.2 3635.8 786.3 3637.7 787.5C3641.6 790 3642.7 792.9 3643.5 804.5C3643.8 809.4 3644.3 815.6 3644.6 818.1L3645.2 822.7L3650.6 819.6L3656 816.5L3655.4 811.5C3653.7 796.7 3645.2 774.5 3636.6 762.7L3633.1 757.9L3631.5 760.4Z" fill="black"/>
<path d="M2549.7 764.2C2546.3 775.2 2544.8 785 2544.3 799.9C2543.7 815 2543.8 815.2 2545.7 814.1C2548.6 812.6 2553.5 804.4 2555.5 798C2556.4 795 2557.4 787.1 2557.7 780.5C2558.2 769.7 2558.1 767.9 2556.2 763.7C2555 761.1 2553.5 759 2552.7 759C2552 759 2550.7 761.3 2549.7 764.2Z" fill="black"/>
<path d="M2093.1 765.3C2088.2 773.2 2082.8 790.8 2079.5 809.5C2078 818.1 2076.1 852.1 2077.3 851C2078.4 849.9 2087.9 828 2091.3 818.5C2097 802.8 2100.1 790.4 2100.7 779.8C2101.3 769.4 2100.3 764.8 2096.9 763C2095.5 762.2 2094.8 762.6 2093.1 765.3Z" fill="black"/>
<path d="M3464.5 828.7C3437.5 888.7 3435.7 892.9 3435.3 899.5C3434.8 905.5 3435.1 906.8 3436.8 909C3438.8 911.5 3438.9 911.5 3440.4 909.5C3441.2 908.4 3444.7 902.8 3448.2 897C3459.5 878 3468.5 855.4 3473.2 833.6C3474.5 827.8 3476 823 3476.6 823C3478.9 823 3485.8 828.9 3488.8 833.6C3493.3 840.3 3495.1 847 3495.1 857.1C3495.1 871.4 3491.2 882.8 3481.8 895.5C3479.4 898.8 3470.7 908.5 3462.6 916.9C3454.5 925.4 3445.8 935.1 3443.3 938.4C3438.2 945.2 3431.9 958 3430.1 965.2C3428.4 972.6 3428.9 989 3430.9 989C3431.2 989 3432.5 985.5 3433.7 981.3C3440.2 958 3454.2 934.2 3471.9 916.1L3480.4 907.6L3481.3 910.5C3481.9 912.2 3482.3 919.3 3482.4 926.5C3482.4 941.7 3480.4 950.7 3474.1 962.7C3471.9 966.8 3470.8 970 3471.4 970C3474.6 970 3481.8 964 3483.9 959.6C3486.5 954.2 3489.3 953.1 3493.9 955.4C3496.9 957 3500 961.5 3500 964.4C3500 966.6 3489.8 985 3482.7 995.5C3472.4 1010.8 3466.4 1017.9 3448 1036C3429.2 1054.5 3425.8 1058.8 3423.9 1066C3422.6 1070.9 3423.3 1073 3428.5 1081.5C3430 1083.9 3431 1087 3431 1089.2C3431 1092.9 3431.1 1093 3434.9 1093C3437.5 1093 3439 1092.5 3439.4 1091.4C3439.9 1090 3439.2 1083.8 3437.4 1073.9C3437 1071.6 3437.3 1069.3 3438.1 1067.7C3440.5 1063.3 3486.4 1007.1 3487.8 1007.1C3488.5 1007 3491.8 1008.1 3495.2 1009.5C3498.6 1010.9 3501.5 1011.9 3501.6 1011.7C3501.8 1011.5 3501.5 1009.6 3500.9 1007.4C3499.5 1002.5 3500.4 992.2 3503.1 981.6C3506.8 967.2 3504.4 952.9 3497.5 948.4C3495.7 947.3 3493.7 946.9 3491 947.3C3488.8 947.6 3487 947.5 3487 947.1C3487 946.6 3487.9 943.7 3489 940.4C3496.3 919.3 3499.9 897.8 3500.7 871.3C3501.3 847.5 3500.3 834.5 3496.2 814.5C3493.9 803.3 3493.6 799 3493.5 783.2C3493.5 773.2 3493.5 765 3493.4 765C3493.4 765 3480.4 793.7 3464.5 828.7Z" fill="black"/>
<path d="M219.1 773.2C214.6 787.1 212.6 802 213.8 812.5C214.4 818 214.7 818.5 217 818.8C220 819.1 223.2 816 224.7 811.5C226.2 806.5 223.8 767 222 767C221.5 767 220.3 769.8 219.1 773.2Z" fill="black"/>
<path d="M854.7 781L848.9 792L852.4 795.4C857 799.7 860 806.3 860 812.3C860 817.5 861.2 818.7 865.4 817.6C870.3 816.4 869.2 804.4 863.5 798.1C861.8 796.1 859.8 793.5 859.1 792.2C858 790.2 858.2 789.9 860.5 789C863.2 788 866 782.8 866 778.8C866 776.4 862.6 770 861.3 770C860.8 770 857.9 775 854.7 781Z" fill="black"/>
<path d="M655 771.7C655 772.2 656.3 777.4 657.8 783.4L660.6 794.3L663.3 791.1C666.5 787.3 667 780.4 664.4 776.4C662.1 772.9 654.9 769.4 655 771.7Z" fill="black"/>
<path d="M1032.5 784.7C1028.9 791.2 1025.4 798.4 1024.7 800.7C1023.2 806.5 1024.6 810.4 1028.4 810.8C1032.2 811.3 1035.1 808.4 1038.6 800.7C1041.1 795.3 1041.5 793.3 1041.5 784.8C1041.5 770.5 1040.5 770.5 1032.5 784.7Z" fill="black"/>
<path d="M300.3 781.1C298.6 792 294.5 799.2 283.6 810.1C268.5 825.4 263.9 837.2 264.8 858.5C265 861.9 265.3 863 265.9 862C266.4 861.2 270 849.9 274 837C277.9 824.1 281.3 813.4 281.5 813.2C281.8 812.9 294.5 814.8 296.7 815.5C297.6 815.8 297.6 816.8 296.9 819.4C295 826.2 301.8 836 308.4 836C309.5 836 310 836.5 309.7 837.3C309.4 838.1 308.9 841.6 308.5 845.1C307.8 851.8 308.9 858.1 311.3 861.4C312.5 863.1 312.8 863.1 314.3 861.6C315.2 860.7 316.4 858.2 317 856.1C318.6 850 316.7 843.5 310 832.6C299.8 816.2 299 810.4 304.9 796.1C308.3 788 308.8 782.4 306.5 778.1C305.4 775.8 303.2 774 301.6 774C301.5 774 300.9 777.2 300.3 781.1Z" fill="black"/>
<path d="M3542 779.6C3535.8 783.5 3525.5 787 3520.4 787C3518.5 787 3517 787.4 3517 787.9C3517 790.6 3545.3 817 3546.7 815.6C3546.9 815.4 3545.7 808.1 3544.1 799.4C3542.4 790.8 3541 783.6 3541 783.4C3541 783.3 3542.1 782.9 3543.5 782.6C3544.8 782.3 3546.7 780.6 3547.5 779C3549.4 775.3 3548.9 775.3 3542 779.6Z" fill="black"/>
<path d="M1991.4 779.5C1990.5 781.7 1993.6 795.4 1996.3 801.3C1997.6 804.2 2000.2 808.1 2002.1 809.9L2005.5 813.4L2006.1 809.2C2006.5 806 2005.6 802.2 2002.1 791.6C1997.7 778.4 1997.5 778 1994.8 778C1993.2 778 1991.7 778.7 1991.4 779.5Z" fill="black"/>
<path d="M510.7 786.7C509.8 787.6 510 823 510.9 825.4C511.5 826.9 512.1 826.1 514.3 821.3C518.2 812.6 519.6 802.3 518 793.2C516.9 786.3 516.7 786 514.1 786C512.6 786 511 786.3 510.7 786.7Z" fill="black"/>
<path d="M2410.5 788.2C2410.3 789.5 2408.6 800.2 2406.9 812C2402.9 839.1 2402 861.4 2404.4 872.2C2406.6 881.9 2407.2 882.8 2409.8 880.2C2413.1 876.9 2413.8 872.2 2415.6 842C2417.5 808.6 2417.2 797.5 2414.2 790.7C2411.9 785.4 2411.3 785 2410.5 788.2Z" fill="black"/>
<path d="M2751.6 795.6C2750.7 796.4 2750 798.1 2750 799.3C2750 803.3 2744.3 813.4 2735 826C2729.9 832.9 2724.6 840.8 2723.3 843.7C2719.9 851 2718.4 859 2719.6 863.1L2720.6 866.5L2725.2 859C2730.8 850.1 2735.2 840.7 2737.5 832.7C2738.8 828.3 2739.8 826.7 2741.6 825.9C2747.7 823.7 2753.3 831.1 2754.6 843C2755 846.6 2755.8 850.6 2756.5 852C2758.1 855 2761.8 858.5 2762.6 857.7C2762.9 857.4 2761.9 842.9 2760.4 825.6C2757.6 794.5 2757.5 794 2755.4 794C2754.1 794 2752.4 794.7 2751.6 795.6Z" fill="black"/>
<path d="M645.3 805.7C640.9 806.6 640.9 808.2 645 816.6C654.8 836.7 656.1 857.5 648.9 880.7C645.7 890.9 644.6 902 646.6 904C647.4 904.8 647.9 903.9 648.3 900.5C649.2 894.1 652.1 888 656.6 883.1C660.1 879.1 668.6 873.3 669.5 874.2C669.7 874.4 670.3 879.7 670.7 886L671.5 897.5L675.3 897.8C677.9 898 679.2 897.7 679.6 896.6C680.3 894.8 670.2 861.2 661.5 836.5C649.7 803.2 650.5 804.7 645.3 805.7Z" fill="black"/>
<path d="M355.8 808.7C352.3 812.5 350.8 815.7 346.5 829C338.1 855.1 332.7 882.5 325 937.5C322.8 953.4 320.1 972.6 319 980C318 987.4 317.3 993.6 317.5 993.8C317.7 994 319.2 993.9 321 993.5C323.2 993 324.6 991.8 326.1 988.8C331.2 978.8 331.4 977.4 331.5 944C331.6 909.6 331.9 907 337.7 891.1C341.8 879.7 349.2 854.6 352.7 840C356.3 824.8 359.8 806 359 806C358.7 806 357.2 807.2 355.8 808.7Z" fill="black"/>
<path d="M2482.7 814.1C2481.7 826.1 2484.1 843.7 2488.5 856C2491 863 2496.2 874 2497 874C2498.7 874 2500.4 863 2500.4 853C2500.4 837.1 2494.9 820.7 2486.1 810.1L2483.3 806.7L2482.7 814.1Z" fill="black"/>
<path d="M2354 808.6C2354 809.1 2352.8 819.3 2351.4 831.3C2348.4 856.1 2348.6 860.8 2353 865.2C2354.6 866.7 2356.7 868 2357.8 868C2358.9 868 2360.9 869.3 2362.3 871C2367.8 877.5 2367 885.1 2359.2 900.8C2354.6 910.2 2353.6 913.1 2353.6 917.4C2353.5 920.6 2354.1 923.4 2354.9 924.4C2356.2 926 2356.6 925.8 2359.7 922.8C2366.7 916 2370.4 903.9 2370.3 888C2370.2 874.4 2369.3 869.1 2361.4 836C2355.5 811.3 2354 805.7 2354 808.6Z" fill="black"/>
<path d="M21.3 817.2C17.3 823 15 829.2 15 834.3C15 838.8 17.7 845.7 20.2 847.7C21.5 848.8 21.9 847.5 23.3 837.7C25.8 821 26.4 813 25.3 813C24.8 813 23 814.9 21.3 817.2Z" fill="black"/>
<path d="M3896 829.1C3891.7 841.1 3881.2 847.8 3871.9 844.6L3868.1 843.3L3867.6 847.9C3867 853.4 3866.6 865.9 3866.8 875.2C3867 880.8 3867.3 881.8 3868.5 881.3C3870.5 880.6 3873.1 875.4 3876 866.5C3879 857.3 3881.6 853.8 3891.2 846.1C3899.5 839.5 3902 835.7 3902 830C3902 826.7 3900.5 823 3899.1 823C3898.6 823 3897.3 825.8 3896 829.1Z" fill="black"/>
<path d="M2013 826.9C2011 830.7 2012.3 838.5 2015.6 843.2C2018.3 847 2029.6 855.8 2030.5 854.8C2031.3 854.1 2028.3 844.5 2025.7 839.4C2024.3 836.6 2021.2 832.2 2018.7 829.5L2014.3 824.6L2013 826.9Z" fill="black"/>
<path d="M417.7 830C413.6 833.6 408.3 843.9 405.7 853.5C401 871 403.4 903.6 411.5 931.6C413.9 939.9 421.5 948.9 424 946.4C424.6 945.8 423.1 934.2 419.8 913.5C415.3 885.4 414.7 879.6 414.6 866C414.5 851.9 414.7 850 416.9 844.5C418.5 840.7 421 837 424.1 833.9C427.6 830.5 428.6 829 427.7 828.1C425.7 826.1 421.2 826.9 417.7 830Z" fill="black"/>
<path d="M2182 832.5C2179.8 834.8 2179.7 835.8 2179.6 847.2C2179.5 857 2179.9 860.5 2181.4 864.4L2183.3 869.4L2185.6 866.4C2191.5 859.1 2193.1 844.6 2189 835.2C2187.8 832.4 2186.2 830 2185.6 830C2184.9 830 2183.3 831.1 2182 832.5Z" fill="black"/>
<path d="M759.7 832.7C755.2 837.8 753 849.7 755.3 857C756 859.5 756.5 863.1 756.2 865.1C755.6 870.6 757.5 870.6 759.8 865.2C762.8 858.3 764.4 847.8 763.6 840.2C762.7 831.8 761.9 830.3 759.7 832.7Z" fill="black"/>
<path d="M552.5 833.2C538.8 835 539.3 834.8 538.6 838.1C536.8 847.1 539.1 856 543.2 856C544.5 856 546.2 855.4 546.9 854.7C548 853.7 548.1 854.4 547.6 858.5C544 888.5 541.7 988 544.5 990.8C545.6 992 548.5 989.3 551 984.9L553.5 980.5L553.2 919.5C552.8 852.2 553 849.3 558.9 837.7C560.6 834.5 561.3 832.1 560.7 832.1C560 832.2 556.4 832.7 552.5 833.2Z" fill="black"/>
<path d="M1981.4 838.2C1980.4 840.6 1979.6 842.9 1979.8 843.4C1980 843.8 1979.2 844.9 1978.2 845.6C1977.1 846.3 1975.5 848.5 1974.6 850.4C1972.9 854.1 1972.4 863.5 1973.9 864.5C1975.4 865.4 1980.9 858.1 1985 849.5C1990.1 839 1990.1 838.4 1986.4 836L1983.3 834L1981.4 838.2Z" fill="black"/>
<path d="M3804.4 839.6C3806.4 844.7 3833.7 881 3835.5 881C3835.9 881 3836.1 877.7 3835.8 873.6C3834.7 857.4 3822.8 842.4 3808.2 839.1C3804.6 838.3 3803.9 838.4 3804.4 839.6Z" fill="black"/>
<path d="M213.3 846.7L207.2 847.1L211 855.3C229.9 896.2 230.6 943.4 212.9 984.9C208.9 994.2 205.4 1000.3 190.2 1024.4C178 1043.6 161.4 1077.7 163.3 1079.6C163.6 1079.9 165.4 1078.7 167.4 1077C169.7 1074.9 179.1 1059.8 195.6 1031.4C209.2 1008.1 220.9 989 221.6 989C224.2 989 229.7 994.9 230.9 999.1C231.6 1001.5 232.5 1007.9 233 1013.4C233.8 1024.8 234.7 1027.5 238.4 1030.9C241.5 1033.8 241.5 1033.5 240.1 1023C237.4 1004.2 231 912.1 231 893.3C231 881.6 232.1 877.1 236.1 872.5L239.2 869.1L235.4 857.5L231.6 846L225.5 846.2C222.2 846.3 216.7 846.5 213.3 846.7Z" fill="black"/>
<path d="M3917.2 846.8C3915.6 847.9 3942.9 910.1 3946.9 914.4C3949.6 917.3 3952.9 919.1 3954.2 918.3C3955.8 917.4 3942.7 884.7 3931 860.2C3924.6 846.9 3924 846 3921.3 846C3919.8 846 3917.9 846.4 3917.2 846.8Z" fill="black"/>
<path d="M3769.3 893.2C3759.8 922.3 3756.4 933.7 3757.3 934.2C3758 934.6 3759.7 935 3761.1 935C3763.7 935 3764.1 934.2 3772 911.2C3782.7 880.2 3785.2 870.4 3784.8 861.8C3784.6 858.1 3784 854.6 3783.4 854C3782.8 853.4 3778.1 866.2 3769.3 893.2Z" fill="black"/>
<path d="M2227.5 868C2224.2 874.6 2222 884 2222 892.2C2222 898.2 2222.2 899 2223.9 899C2226.8 899 2232 894.1 2234.1 889.5C2236.8 883.6 2236.6 874.8 2233.5 868.2C2232.2 865.4 2230.9 863 2230.6 863C2230.3 863 2228.9 865.2 2227.5 868Z" fill="black"/>
<path d="M3525.2 872.2C3519.2 890.6 3519 901.7 3524.6 915.3C3526.9 921.2 3550.1 960.2 3559.1 973.5C3564.6 981.7 3571.9 989 3577.5 991.9C3581.3 993.9 3586.6 994.8 3585.8 993.2C3582.8 987.4 3581.7 983.7 3581.7 978.8V973.1L3572.4 965C3552.2 947.1 3534.6 924.5 3528.4 908.5C3524.8 899.1 3524.6 887.5 3527.8 877.6C3530 870.7 3530.7 863 3529.1 863C3528.6 863 3526.9 867.2 3525.2 872.2Z" fill="black"/>
<path d="M3902 870.5C3901.4 872.1 3899.8 876.2 3898.5 879.5C3890 901.9 3867.3 951.8 3853 979.9C3847.5 990.7 3844.4 997.8 3844.9 998.3C3846.4 999.8 3850.7 998.2 3854.7 994.7C3858.8 991.1 3868.9 971.2 3878 948.5C3883.9 933.6 3885.9 931 3890.7 931C3899.2 931 3906.6 937.2 3917.4 953.3C3929.2 971 3931.5 977.6 3934.5 1002.5C3936.3 1017.6 3939 1026.7 3943 1031C3947.4 1035.7 3948.2 1035 3947.5 1026.7C3944.2 988.4 3932.5 959 3909.8 931.7C3907 928.3 3904.1 924.1 3903.4 922.3C3901.4 917.7 3901.7 907.4 3904 894.1C3906.3 881 3906.5 874.7 3904.6 870.5L3903.2 867.5L3902 870.5Z" fill="black"/>
<path d="M3257.3 875.9C3246.8 882.9 3237.4 892.5 3233.4 900C3230.5 905.5 3230.5 905.6 3230.8 920.7C3231.1 934.8 3230.9 936.4 3228.5 943.7C3223.2 959.6 3207 984.2 3187.2 1006.6L3179.2 1015.8L3190.7 1016.5C3204.5 1017.4 3205 1017.1 3212.2 1006.4C3221.4 992.9 3229.2 975.1 3233.4 958C3236.5 945.7 3236.8 943.7 3237.9 930C3239.2 914.4 3241 910.1 3253.1 894.1C3261.6 882.7 3268 872.6 3268 870.5C3268 869.2 3265.5 870.4 3257.3 875.9Z" fill="black"/>
<path d="M294 879.6C293.8 903.5 292.2 931.6 290.7 935.1C287.8 942.1 280.2 944.3 275.5 939.5C273.4 937.5 273 936.1 273 931.3C273 923.8 270.8 915.4 266.6 906.5C261.6 895.9 260.2 894.6 255.3 895.4L251.3 896.1L256.6 906.8C266.2 925.9 269.7 945.6 268.6 975C268.3 984.6 267.3 997.9 266.4 1004.5C263.8 1024.7 263.5 1035.1 265.4 1038.8C266.8 1041.6 270 1043.3 270 1041.3C270 1041 277.3 1010 286.2 972.6C301.8 906.7 302.4 904.1 302.4 893.5C302.5 881.8 301.1 877.1 296.1 872.6L294 870.7V879.6Z" fill="black"/>
<path d="M35.3999 874.2C31.4999 878.4 27.1999 886.4 25.0999 893.4C22.8999 900.4 22.2999 915.6 23.9999 921C24.6999 923.3 24.9999 922.9 27.8999 916.8C33.4999 904.8 38.8999 881.3 37.7999 874L37.4999 871.8L35.3999 874.2Z" fill="black"/>
<path d="M2988.3 879.3C2983.5 887.8 2978.2 899.7 2977.4 903.8C2976.9 906.3 2977.3 907.1 2979.9 908.9C2985.2 912.7 2987.4 918.2 2987.3 928C2987.2 946.7 2976.3 982.7 2964.3 1003.9L2960.5 1010.5L2959.9 1004.3C2959.2 997.3 2956.2 991.7 2950.8 987.7C2947.4 985.2 2940.3 982.4 2939.4 983.3C2939.1 983.6 2941.7 988.6 2945.1 994.5C2961.2 1022.5 2966.9 1042 2965.7 1064.4C2965.4 1070 2964.4 1077.8 2963.4 1081.8L2961.6 1089.2L2964 1091.1C2965.8 1092.4 2968.2 1093 2972.4 1093C2977.6 1093 2978.1 1092.8 2977.5 1091.3C2977.1 1090.3 2976.5 1086.9 2976.2 1083.8C2975.8 1078.8 2976.1 1077.5 2979 1072.5C2983.4 1064.7 2983.3 1059.7 2977.9 1043.3C2969.5 1017.8 2972.3 1000.8 2987.3 985.5L2993.2 979.5L2992.1 969.5C2988.7 939.6 2988.5 911.1 2991.5 884C2992.1 877.7 2992.6 872.4 2992.5 872.3C2992.4 872.1 2990.5 875.3 2988.3 879.3Z" fill="black"/>
<path d="M3051.1 891.2C3038.5 930.1 3034.8 950.6 3034.9 980.5C3035 1000 3039.4 1088.7 3040.3 1089.7C3041.1 1090.5 3046.8 1080.1 3048.6 1074.5C3049.6 1071.5 3050.4 1064.6 3050.7 1057C3051.1 1046.6 3050.7 1042.1 3048.5 1030C3040.5 985.1 3041.1 975.3 3055 920.6C3060.7 898.1 3061.9 891.8 3061.4 888.3C3060.8 884.1 3057.8 879 3056 879C3055.5 879 3053.3 884.5 3051.1 891.2Z" fill="black"/>
<path d="M2866.1 886.1C2865 889.4 2863.6 897 2863 902.8C2860.3 930.4 2858.5 937.9 2853.3 944C2850.9 946.9 2850.9 947 2852.9 947C2856.1 947 2861.8 941.3 2865.1 934.9C2870.1 924.9 2872.4 914.9 2872.4 902.5C2872.5 892.2 2870.8 881.6 2869 880.5C2868.5 880.2 2867.3 882.7 2866.1 886.1Z" fill="black"/>
<path d="M3643.5 889.7C3641.3 891.1 3639.1 892.9 3638.7 893.7C3638.3 894.4 3637.3 895 3636.5 895C3634.3 895 3631.8 899.5 3632.2 902.7C3632.8 908.4 3641.6 905.7 3646.7 898.1C3648.9 894.8 3650 887 3648.2 887C3647.8 887 3645.7 888.2 3643.5 889.7Z" fill="black"/>
<path d="M2140.7 893.8C2132.9 911.1 2132.1 934.4 2138.2 967.2C2140.2 978 2140.5 979 2142.5 979C2143.7 979 2145.5 978.1 2146.5 977C2148.1 975.2 2148.2 972.9 2147.7 944.3C2147.2 918.1 2145.2 889.9 2143.7 888.4C2143.5 888.1 2142.1 890.6 2140.7 893.8Z" fill="black"/>
<path d="M3795 901.2C3795 934.2 3804.4 981.2 3818.1 1016.4L3822.2 1027.2L3825.9 1026.5C3827.9 1026.1 3829.6 1025.7 3829.8 1025.5C3830.6 1024.8 3825.4 1008.8 3817.7 987.9C3803.1 948.8 3800.9 935.5 3805.7 914.7C3807 909 3807.1 907.1 3806 903.7C3804.4 898.3 3801.6 894.3 3797.9 892.5L3795 890.9V901.2Z" fill="black"/>
<path d="M761.2 896.6C760 897.4 759 898.7 759 899.3C759 900 762.5 902.6 766.8 905.2C774.2 909.7 774.5 909.8 775.3 907.7C776.2 905.2 775.3 900.4 773.4 897.2C772.3 895.5 771 895 767.7 895C765.4 895 762.4 895.7 761.2 896.6Z" fill="black"/>
<path d="M958.2 901.5C938.8 904.4 921.5 907.3 919.8 907.9C915.9 909.3 913 911.8 913 913.8C913 915.1 915 915.2 927.8 914.7C944 914 961.1 911.4 975 907.5C985.8 904.5 1003 897.9 1003 896.8C1003 895.2 992.8 896.3 958.2 901.5Z" fill="black"/>
<path d="M3352 898.1C3352 899.5 3361.4 908.8 3370.7 916.7C3382.5 926.8 3384.9 936.9 3377.8 948C3371 958.9 3367.6 970.5 3368.2 980.9L3368.5 986.3L3372.6 980.4C3381.8 967.3 3388.1 950.8 3390 935.2C3391.8 920.9 3391.3 920.2 3375 910.5C3353 897.4 3352 896.8 3352 898.1Z" fill="black"/>
<path d="M55.7 904.1C44.7 923 52.5 958.5 87.2 1046.5C98.2 1074.3 101.8 1081.2 105.8 1081.8C108.6 1082.2 112 1080.3 112 1078.4C112 1077.6 109.7 1073 107 1068.3C83.6 1028.8 68.2 981.5 63.5 934.9C59.8 897.7 59.7 897.3 55.7 904.1Z" fill="black"/>
<path d="M199.5 905.6C189.5 918.7 186 935.3 189.5 953.3C192.6 969.4 190.5 979.6 183.6 982.5C181.6 983.3 179.6 984 179.1 984C178.5 984 174.6 976.8 170.3 968C166 959.3 162.3 952.1 162 952C160.9 952 141 1057.7 141 1063.3C141 1068.4 141.4 1069.5 143.9 1072.1C146.1 1074.2 147.8 1075 150.5 1075C153.6 1075 154.1 1074.7 153.5 1073.2C149.3 1062.4 148.4 1043.7 151.4 1031.5C153.8 1021.9 160.9 1007.7 166.8 1000.5C169.5 997.2 174.5 992.5 178 990C198.3 975.6 200.6 969.8 202.1 928.6C202.6 914.4 202.9 902.5 202.7 902.3C202.4 902.1 201 903.6 199.5 905.6Z" fill="black"/>
<path d="M3576 908.2C3576 908.8 3580.2 913.4 3585.3 918.4C3594.8 927.9 3603 933 3614.5 937L3620 938.9V936.4C3620 932.3 3618.3 930.3 3614.3 929.6C3607.5 928.5 3599.9 924.1 3592.6 917.2C3588.7 913.4 3584.4 909.6 3583 908.7C3580.2 906.7 3576 906.5 3576 908.2Z" fill="black"/>
<path d="M3649.9 916.2C3644.6 924.1 3638 932.1 3631.3 938.6C3626.7 943 3625.1 945.8 3617.5 962.9C3612.8 973.5 3609.1 982.4 3609.4 982.7C3611.2 984.6 3619 976.2 3637.3 952.7C3658.8 925.1 3661 921.8 3661 917.2C3661 914.4 3657.5 910 3655.3 910C3654.7 910 3652.3 912.8 3649.9 916.2Z" fill="black"/>
<path d="M602.3 919.3C595.2 926.6 590.1 934.3 584.9 945.4C578.9 958.4 576.8 967.4 576.4 983.5L576 997.5L582 985.5C585.3 978.9 590.7 966.7 593.9 958.5C599.7 943.7 609.4 914.1 608.7 913.4C608.5 913.2 605.6 915.8 602.3 919.3Z" fill="black"/>
<path d="M3264.1 931.5C3260.9 942.2 3259 955.1 3259 966C3259 974.6 3260.5 987.8 3261.5 988.9C3262.4 989.8 3265.4 986.3 3267.2 982.3C3270.3 975.4 3270.5 967.8 3268 953C3266.5 943.9 3265.9 937.2 3266.2 931.8C3266.5 927.5 3266.6 924 3266.5 924C3266.4 924 3265.3 927.4 3264.1 931.5Z" fill="black"/>
<path d="M10.1001 941.6C7.6001 944.8 6.7001 950.6 7.4001 959.5C7.8001 965.1 8.3001 966.8 10.1001 968.2C14.6001 971.9 15.0001 970.9 15.0001 957.6C15.0001 944.9 14.4001 939 12.9001 939C12.5001 939 11.2001 940.2 10.1001 941.6Z" fill="black"/>
<path d="M3330.6 944.6C3327.6 952.4 3333.7 971.4 3341.6 979.1L3344.9 982.3L3345.6 979.6C3347 973.8 3343.6 960 3339 952.7C3336.8 949.2 3336.2 947.4 3336.9 946.6C3337.6 945.7 3337.6 945 3336.8 944.2C3335.1 942.5 3331.3 942.7 3330.6 944.6Z" fill="black"/>
<path d="M2295.1 949.9C2293.8 952.9 2291.6 959.6 2290.2 964.9C2288 973.3 2287.7 976.6 2287.6 991C2287.6 1005.2 2287.9 1008.7 2289.9 1016.5C2291.2 1021.4 2292.4 1025.8 2292.7 1026.3C2293.6 1027.8 2297.2 1024.7 2298.6 1021.3C2301.7 1014.1 2301.4 971.8 2298.2 949.5L2297.5 944.5L2295.1 949.9Z" fill="black"/>
<path d="M661.2 947.6C655.4 951.6 653.1 963.9 656.9 970.9L658.7 974.3L661.3 969.9C664.6 964.2 666 958.8 666 951.7C666 945.5 665.2 944.8 661.2 947.6Z" fill="black"/>
<path d="M2882 959.8C2872.7 965.6 2867.3 969.6 2868.3 969.8C2871.3 970.4 2877.1 967.9 2881.2 964.2C2883.3 962.3 2885.2 960.9 2885.4 961.1C2885.6 961.3 2887.4 965.9 2889.5 971.2C2891.6 976.6 2893.5 980.8 2893.7 980.6C2894.1 980.3 2898 950.6 2897.7 950.3C2897.6 950.2 2890.5 954.5 2882 959.8Z" fill="black"/>
<path d="M389.6 954.7C388.9 956.3 387.4 961.3 386.5 966C385.6 970.7 384.2 975.6 383.5 977C381.6 980.6 377.3 984.3 371.2 987.6C360.8 993.1 353.4 1004.5 354.2 1013.7L354.5 1017.5L362.3 1010C381.5 991.8 391.1 975.6 392.7 958.8C393.3 951.4 392.2 949.8 389.6 954.7Z" fill="black"/>
<path d="M619.7 955.6C618.3 957 619.1 965.6 620.9 969.5C623.3 974.5 630.2 982 632.5 982C636.9 982 630.5 964.8 623.6 958.1C621.8 956.4 620.1 955.3 619.7 955.6Z" fill="black"/>
<path d="M2704.3 1017.5L2704.5 1070.5L2707.8 1077.2C2711 1083.7 2715.2 1088 2719.9 1089.5C2722 1090.1 2722.2 1090 2721.5 1088.4C2718.7 1081.4 2715.6 1071.1 2713.8 1063C2711.1 1050.7 2710.8 1025.6 2713.3 1013.5C2716.4 998.5 2715.3 985.7 2709.7 973.8C2703.7 961 2704 959.1 2704.3 1017.5Z" fill="black"/>
<path d="M409.7 967.5C408.3 970.9 409.1 973.9 413.5 982.6C421.9 998.9 419.7 1004.5 400.8 1015.3C392.7 1020 388.5 1028 391.5 1032.7L393 1035L399.1 1031.2C407.2 1026.2 416.5 1017.8 419.5 1012.6C423.2 1006.3 424.4 999.2 423 992.3C421.9 986.6 415.6 972.8 412.1 968.1C410.5 966 410.2 966 409.7 967.5Z" fill="black"/>
<path d="M490.1 968.1C489 969.3 487.6 972.6 487.1 975.4C485.7 982.8 482.6 1041.6 483.2 1049.8C483.8 1057.3 487.2 1065.2 490.1 1065.8C491.5 1066.1 491.8 1061 492.4 1016.5C492.8 989.2 492.9 966.6 492.7 966.4C492.4 966.1 491.3 966.9 490.1 968.1Z" fill="black"/>
<path d="M3895.2 974C3892.6 990.4 3886.9 1006.4 3878.4 1020.7C3873 1029.9 3867.5 1037 3857.2 1048.1C3848.4 1057.7 3845.3 1063.7 3846.4 1069.4C3846.8 1071.4 3847.5 1073.2 3847.9 1073.5C3848.4 1073.8 3850.2 1071.6 3851.8 1068.6C3853.5 1065.7 3857.4 1060.5 3860.5 1057.2C3866 1051.2 3877 1043 3879.4 1043C3882.5 1043 3909.6 1073 3919.7 1087.6L3923.5 1093H3929.2H3934.9L3930.8 1085.8C3922.3 1070.7 3910.9 1054.7 3897.8 1039.4L3890 1030.2L3896.6 1006.9C3900.2 994 3903.5 981.5 3904.1 979.1C3905.7 972.1 3902.7 966 3897.8 966C3896.9 966 3896 968.6 3895.2 974Z" fill="black"/>
<path d="M2602.2 997.7C2598.9 1034.7 2598.7 1038.8 2600 1042C2602.5 1048 2607.9 1048.4 2610 1042.7C2611.8 1037.9 2612.4 1017.7 2611.1 1009.1C2609.9 1001.7 2605.6 987.3 2604.1 985.7C2603.7 985.3 2602.8 990.7 2602.2 997.7Z" fill="black"/>
<path d="M3351.1 993.2C3350 995.7 3346.6 1026.9 3347.2 1027.6C3348.3 1028.7 3356.5 1020 3358.6 1015.6C3363.2 1005.8 3361 991.9 3354.8 991.2C3352.7 990.9 3351.8 991.4 3351.1 993.2Z" fill="black"/>
<path d="M3532.9 991.7L3530.2 992.1L3531.7 997.8C3533.7 1005.6 3541.1 1020.9 3546.4 1028.4C3551.4 1035.4 3563.4 1047.2 3570 1051.7C3574.9 1055 3583.1 1059.3 3583.4 1058.8C3583.6 1058.6 3584.2 1055.1 3584.8 1051C3585.4 1046.9 3586.4 1041.8 3587 1039.8C3588.6 1034.1 3594 1026.8 3599.3 1023.3C3613.1 1014.1 3628 1021 3628 1036.6C3628 1041 3627.7 1041.6 3622.1 1047C3613.3 1055.4 3611.9 1063.1 3617.7 1070.1C3621.1 1074.1 3625 1076 3630 1076C3637 1076 3642.3 1072 3645.6 1064.1C3648 1058.5 3647.5 1057.4 3643.8 1060.2C3642 1061.6 3639.5 1063.2 3638.3 1063.9C3634.8 1065.7 3626.6 1067 3622.6 1066.3L3619 1065.7L3621.8 1060.6C3626.2 1052.8 3632.5 1038.4 3636.4 1027C3638.4 1021.4 3640 1016.7 3640 1016.5C3640 1016.4 3637.6 1016 3634.6 1015.7C3628.1 1015.1 3623.8 1013 3618.8 1008.2L3615.1 1004.7L3609.8 1008.7C3602.4 1014.4 3598.2 1018.4 3591.4 1026.4C3584.6 1034.4 3581.5 1036 3572.7 1036C3567.6 1036 3565.1 1035.4 3560.2 1032.9C3549.6 1027.6 3543.3 1016.9 3540 998.2C3538.6 990.6 3538.8 990.8 3532.9 991.7Z" fill="black"/>
<path d="M3137.4 1008.5C3131.4 1023 3131.5 1043.1 3137.6 1055.7C3139.9 1060.2 3142.1 1060.9 3145 1058C3149 1054 3145.5 1046 3139.8 1046C3136.5 1046 3136.5 1046.9 3138.3 1021.7C3139 1012.5 3139.4 1005 3139.2 1005C3139 1005 3138.2 1006.6 3137.4 1008.5Z" fill="black"/>
<path d="M3404.9 1007.8C3399.5 1011.3 3393.3 1018.3 3392.5 1021.9C3392.2 1023.4 3392.6 1026.5 3393.5 1028.9C3395.5 1034.7 3395.4 1037.5 3392.9 1042.7C3390.6 1047.5 3386.7 1050.7 3382.1 1051.6C3380.3 1052 3379 1052.9 3379 1053.7C3379 1054.5 3381.4 1059.8 3384.4 1065.4C3389.6 1075.1 3393 1084.9 3393 1090.4C3393 1092.8 3393.3 1093 3397.4 1093C3399.9 1093 3402.1 1092.6 3402.4 1092.2C3402.6 1091.8 3402.2 1086.3 3401.3 1080C3398.3 1057.5 3400.6 1031.9 3407.4 1012.2C3408.8 1008.3 3409.8 1005 3409.6 1005C3409.5 1005 3407.4 1006.3 3404.9 1007.8Z" fill="black"/>
<path d="M2871 1011.3C2857.8 1015 2850 1025.9 2850 1040.5C2850 1052.2 2855.5 1062.3 2864.8 1067.8C2871.3 1071.6 2880.2 1071.5 2887.7 1067.7C2901.8 1060.5 2909.6 1043.6 2905.6 1029.5C2901.6 1015.8 2885.3 1007.3 2871 1011.3ZM2886.6 1016.6C2890.3 1018.4 2893.7 1023 2894.6 1027.8C2895.5 1032.3 2892.5 1041.1 2887.5 1048.5C2885.1 1052.1 2882.8 1056 2882.5 1057.1C2881.5 1060 2876.1 1063 2871.8 1063C2867 1063 2861.8 1058.6 2859.4 1052.5C2857 1046.2 2857.8 1033.1 2860.9 1027.1C2866.3 1016.6 2877.2 1012.1 2886.6 1016.6Z" fill="black"/>
<path d="M50.5 1016.5C46.2 1023.2 41.1 1034.7 38.7 1043C36.4 1051.3 35.2 1057.9 33 1075.4C31.9 1084.1 30.7 1091.6 30.4 1092.2C30 1092.7 31.6 1093 34.1 1092.8L38.4 1092.5L42.2 1079C48.1 1058.3 56.1 1015.6 54.7 1011.7C54.5 1011 52.6 1013.2 50.5 1016.5Z" fill="black"/>
<path d="M3787.6 1022.2C3787.3 1023.5 3787 1027.6 3787 1031.5C3787.1 1043.2 3792.6 1053.9 3801.8 1060C3804.3 1061.6 3806.5 1062.8 3806.7 1062.7C3807 1062.4 3789.3 1021 3788.6 1020.3C3788.4 1020.1 3788 1021 3787.6 1022.2Z" fill="black"/>
<path d="M3677.3 1047.2C3680 1061.7 3682.9 1074.5 3683.6 1075.7C3685.6 1078.8 3690.8 1081.3 3695.5 1081.4C3703.8 1081.5 3704.1 1082.7 3688.3 1051.3C3680.3 1035.5 3673.4 1022.1 3673 1021.7C3672.6 1021.3 3674.5 1032.7 3677.3 1047.2Z" fill="black"/>
<path d="M2932.6 1054.7C2933 1063.4 2933.5 1073.4 2933.9 1076.9L2934.5 1083.2L2938.2 1077C2945.8 1064.1 2945.2 1052.5 2936.4 1042.1C2935 1040.4 2933.4 1039 2932.9 1039C2932.3 1039 2932.2 1045 2932.6 1054.7Z" fill="black"/>
<path d="M3522.4 1047.2C3516.4 1053.8 3515.8 1054.8 3516.5 1057C3516.9 1058.1 3517.7 1058.9 3518.3 1058.8C3519 1058.6 3520.5 1059.5 3521.8 1060.8C3524.7 1063.7 3529.5 1063.8 3531.1 1060.9C3533.1 1057.1 3529.6 1044 3526.6 1044C3525.9 1044 3524.1 1045.5 3522.4 1047.2Z" fill="black"/>
<path d="M366.7 1049.7C359.4 1059.7 350 1082.7 350 1090.6C350 1092.8 350.4 1093 355.4 1093H360.7L364.8 1076.2C369.2 1058.5 371.5 1046.2 370.7 1045.4C370.5 1045.1 368.6 1047.1 366.7 1049.7Z" fill="black"/>
<path d="M3239.2 1046.1C3237.3 1046.7 3230.8 1047.4 3224.7 1047.8L3213.5 1048.5L3211.2 1054.2C3209.8 1057.8 3208.6 1064 3207.9 1070.7C3207.4 1076.7 3206.6 1084.1 3206.1 1087.2L3205.3 1093H3211.2H3217V1086.2C3217 1073.6 3220.7 1064.6 3228.2 1059.4C3235.8 1054.1 3245.5 1055.9 3249.5 1063.4C3251.8 1067.7 3253 1066.5 3253 1059.8C3253 1054.3 3251.7 1050.4 3248.8 1047.2C3246.5 1044.8 3244.5 1044.6 3239.2 1046.1Z" fill="black"/>
<path d="M245 1048.7C245 1053 249.3 1061.1 253.4 1064.8C257.8 1068.6 263 1069.3 263 1066C263 1062.6 260.2 1058.3 257.3 1057C255.7 1056.3 253.8 1054.4 253 1052.8C252.2 1051.1 250 1048.9 248.3 1047.8L245 1045.8V1048.7Z" fill="black"/>
<path d="M3346.8 1058.6C3342 1062.2 3336.4 1069.6 3335.4 1073.7C3334.6 1076.8 3335.7 1079.3 3337.5 1078.6C3338.3 1078.3 3339 1078.5 3339 1079C3339 1083.3 3350 1072.4 3351.8 1066.4C3353.1 1061.8 3353.4 1055 3352.3 1055C3351.8 1055 3349.4 1056.6 3346.8 1058.6Z" fill="black"/>
<path d="M391.7 1067.9C391.3 1069.6 390.7 1076 390.4 1082.1L389.7 1093H394.7C400.4 1093 401 1092.2 401 1084C401 1077.4 399.4 1072.8 395.7 1068.5L392.3 1064.6L391.7 1067.9Z" fill="black"/>
<path d="M3473.2 1068.2C3468.8 1069 3468 1069.5 3468.5 1070.8C3468.8 1071.8 3469.4 1077.1 3469.7 1082.7L3470.3 1093H3474C3477.1 1093 3477.9 1092.6 3478.3 1090.8C3479.4 1086.4 3480.3 1067 3479.4 1067.1C3478.9 1067.2 3476.1 1067.7 3473.2 1068.2Z" fill="black"/>
<path d="M3764 1068.5C3764 1068.9 3767.7 1074.5 3772.2 1081.1L3780.4 1093H3787.2C3790.9 1093 3794 1092.8 3794 1092.5C3794 1091.3 3784.2 1081.5 3779 1077.5C3772.7 1072.8 3764 1067.5 3764 1068.5Z" fill="black"/>
</svg>
