<?xml version="1.0" encoding="UTF-8" standalone="no"?>
<svg
   xmlns:dc="http://purl.org/dc/elements/1.1/"
   xmlns:cc="http://creativecommons.org/ns#"
   xmlns:rdf="http://www.w3.org/1999/02/22-rdf-syntax-ns#"
   xmlns:svg="http://www.w3.org/2000/svg"
   xmlns="http://www.w3.org/2000/svg"
   id="svg1380"
   version="1.1"
   viewBox="0 0 160.24124 59.867999"
   height="776.47388"
   width="2078.2913">
  <metadata
     id="metadata1386">
    <rdf:RDF>
      <cc:Work
         rdf:about="">
        <dc:format>image/svg+xml</dc:format>
        <dc:type
           rdf:resource="http://purl.org/dc/dcmitype/StillImage" />
        <dc:title></dc:title>
      </cc:Work>
    </rdf:RDF>
  </metadata>
  <defs
     id="defs1384" />
  <path
     id="path1376"
     fill="#234b8d"
     d="m 22.289,41.095 c -0.696,7.97 -3.339,12.581 -8.542,12.581 -1.251,0 -2.354,-0.198 -3.115,-0.526 L 12.665,29.9 c 1.034,-0.526 2.112,-0.79 3.758,-0.79 5.466,-10e-4 6.471,5.069 5.866,11.985 z m 10.2,-0.658 C 33.406,29.966 28.197,23.248 19.834,23.248 c -3.096,0 -4.985,0.526 -6.701,1.317 L 14.624,7.507 H 4.35 L 0,57.234 c 2.238,1.512 6.487,2.634 12.613,2.634 11.657,-0.001 18.788,-6.983 19.876,-19.431 z m 80.288,18.771 2.18,-24.896 c 0.236,-2.7 -1.16,-4.807 -4.717,-4.807 -1.777,0 -3.338,0.526 -4.629,1.711 l -1.789,20.459 c -0.516,5.878 -3.836,7.533 -7.793,7.533 H 92.89 l 2.188,-25.029 c 0.248,-2.831 -1.566,-4.674 -5.121,-4.674 -1.846,0 -2.918,0.197 -4.209,0.659 L 83.207,59.209 H 72.931 l 2.933,-33.523 c 4.108,-1.78 8.398,-2.637 14.588,-2.637 5.863,0 9.084,1.581 10.951,3.558 2.406,-1.91 6.172,-3.558 12.035,-3.558 8.43,0 12.34,5.007 11.791,11.263 l -2.18,24.896 z m -56.73,-5.73 c -0.961,0.462 -2.303,0.725 -3.818,0.725 -4.084,0 -6.299,-1.778 -5.936,-5.926 0.495,-5.665 4.64,-7.115 10.883,-7.708 z m 9.286,3.755 1.856,-21.21 C 68.03,26.408 62.396,23.048 54.361,23.048 c -5.049,0 -10.047,1.183 -13.96,2.835 0.702,2.9 3.468,4.764 6.039,4.329 1.843,-0.315 3.744,-0.775 5.452,-0.775 3.755,0 6.165,1.054 5.842,4.741 l -0.146,1.649 c -10.754,0.987 -20.145,3.687 -20.945,12.842 -0.646,7.378 4.289,11.197 14.564,11.197 6.124,10e-4 11.023,-1.055 14.126,-2.633 z m 83.682,-3.755 c -0.963,0.462 -2.305,0.725 -3.816,0.725 -4.084,0 -6.301,-1.778 -5.938,-5.926 0.496,-5.665 4.641,-7.115 10.883,-7.708 z m 9.289,3.755 1.854,-21.21 C 161,26.408 155.365,23.048 147.334,23.048 c -5.051,0 -10.051,1.183 -13.965,2.835 0.701,2.9 3.469,4.764 6.039,4.329 1.848,-0.315 3.744,-0.775 5.453,-0.775 3.754,0 6.168,1.054 5.842,4.741 l -0.145,1.649 c -10.754,0.987 -20.143,3.687 -20.947,12.842 -0.646,7.378 4.291,11.197 14.564,11.197 6.127,10e-4 11.027,-1.055 14.129,-2.633 z" />
  <path
     id="path1378"
     fill="#63ab5b"
     d="M 39.839,23.939 C 45.666,18.561 56.7,18.451 64.986,19.166 76.214,20.129 85.745,11.716 91.292,0 85.47,5.38 74.431,5.488 66.145,4.774 54.921,3.811 45.389,12.225 39.839,23.939 Z" />
</svg>
