<?xml version="1.0" encoding="UTF-8"?>
<svg width="176px" height="59px" viewBox="0 0 176 59" version="1.1" xmlns="http://www.w3.org/2000/svg" xmlns:xlink="http://www.w3.org/1999/xlink">
    <!-- Generator: Sketch 54.1 (76490) - https://sketchapp.com -->
    <title>logo-hl_klatreparker</title>
    <desc>Created with Sketch.</desc>
    <g id="Website-Desktop" stroke="none" stroke-width="1" fill="none" fill-rule="evenodd">
        <g id="Article-List---DT" transform="translate(-43.000000, -17.000000)">
            <g id="top-nav">
                <g id="logo-hl_klatreparker" transform="translate(43.000000, 17.000000)">
                    <g id="Group-5" transform="translate(27.000000, 50.763539)" fill="#B7C42E">
                        <polygon id="Fill-1" points="5.94988982 0.236461458 1.62507141 4.33884188 1.62507141 0.236461458 0 0.236461458 0 8.23646146 1.62507141 8.23646146 1.62507141 6.19064398 3.01248674 4.88745765 6.10005713 8.23646146 8 8.23646146 4.10022035 3.81350795 7.77474904 0.236461458"></polygon>
                        <polygon id="Fill-2" points="11 0.236461458 11 8.23646146 17 8.23646146 17 6.97983882 12.5726622 6.97983882 12.5726622 0.236461458"></polygon>
                        <path d="M22.7347739,0.236461458 L19,8.23646146 L20.5886725,8.23646146 L21.4068543,6.38525632 L25.5572225,6.38525632 L26.3871723,8.23646146 L28,8.23646146 L24.2528388,0.236461458 L22.7347739,0.236461458 Z M23.4823481,1.72172375 L25.0468653,5.21997015 L21.9289794,5.21997015 L23.4823481,1.72172375 Z" id="Fill-3"></path>
                        <polygon id="Fill-4" points="29 0.236461458 29 1.49368107 31.7342596 1.49368107 31.7342596 8.23646146 33.2657404 8.23646146 33.2657404 1.49368107 36 1.49368107 36 0.236461458"></polygon>
                        <path d="M43.3211718,1.71794479 C42.9728901,1.43585104 42.462862,1.29511146 41.7904676,1.29511146 L39.987707,1.29511146 L39.987707,4.57698646 L41.7904676,4.57698646 C42.462862,4.57698646 42.9728901,4.43440312 43.3211718,4.14800729 C43.6694535,3.86161146 43.8429746,3.45537187 43.8429746,2.93051771 C43.8429746,2.40443437 43.6694535,2.00065312 43.3211718,1.71794479 L43.3211718,1.71794479 Z M43.8789183,8.23621563 L42.1821296,5.82459062 C42.110862,5.83196562 42.0042704,5.83626771 41.8617352,5.83626771 L39.987707,5.83626771 L39.987707,8.23621563 L38.4452282,8.23621563 L38.4452282,0.000184375 L41.8617352,0.000184375 C42.5818479,0.000184375 43.2083831,0.117569792 43.7425803,0.352955208 C44.2761577,0.588340625 44.6857915,0.925746875 44.9702423,1.36517396 C45.2553127,1.80460104 45.3972282,2.32576771 45.3972282,2.93051771 C45.3972282,3.54940312 45.2447775,4.08347604 44.9404958,4.53027812 C44.6362141,4.97769479 44.1993127,5.31079896 43.6297915,5.53020521 L45.5397634,8.23621563 L43.8789183,8.23621563 Z" id="Fill-5"></path>
                        <polygon id="Fill-7" points="55.0440732 6.9538875 55.0440732 8.23652292 48.8152845 8.23652292 48.8152845 0.000491666667 54.8779887 0.000491666667 54.8779887 1.2825125 50.3577634 1.2825125 50.3577634 3.42433542 54.3679606 3.42433542 54.3679606 4.68361667 50.3577634 4.68361667 50.3577634 6.9538875"></polygon>
                        <path d="M63.2598648,4.14204583 C63.6081465,3.8593375 63.7816676,3.45555625 63.7816676,2.9300875 C63.7816676,2.40461875 63.6081465,2.0008375 63.2598648,1.71812917 C62.9115831,1.43603542 62.4015549,1.29468125 61.7291606,1.29468125 L59.9264,1.29468125 L59.9264,4.56549375 L61.7291606,4.56549375 C62.4015549,4.56549375 62.9115831,4.42413958 63.2598648,4.14204583 M63.6812732,0.353139583 C64.2148507,0.588525 64.6244845,0.92593125 64.9089352,1.36474375 C65.1940056,1.80417083 65.3359211,2.32595208 65.3359211,2.9300875 C65.3359211,3.52623333 65.1940056,4.04617083 64.9089352,4.48867083 C64.6244845,4.9324 64.2148507,5.27165 63.6812732,5.50703542 C63.1470761,5.74242083 62.5205408,5.85980625 61.8004282,5.85980625 L59.9264,5.85980625 L59.9264,8.2364 L58.3839211,8.2364 L58.3839211,0.00036875 L61.8004282,0.00036875 C62.5205408,0.00036875 63.1470761,0.117754167 63.6812732,0.353139583" id="Fill-10"></path>
                        <path d="M72.9707887,5.13054167 L71.4047606,1.5303125 L69.850507,5.13054167 L72.9707887,5.13054167 Z M73.4808169,6.33020833 L69.3287042,6.33020833 L68.5100563,8.23664583 L66.9198592,8.23664583 L70.6573803,-6.21724894e-15 L72.1756901,-6.21724894e-15 L75.9249859,8.23664583 L74.3118592,8.23664583 L73.4808169,6.33020833 Z" id="Fill-12"></path>
                        <path d="M83.5974085,1.71794479 C83.2491268,1.43585104 82.7390986,1.29511146 82.0667042,1.29511146 L80.2639437,1.29511146 L80.2639437,4.57698646 L82.0667042,4.57698646 C82.7390986,4.57698646 83.2491268,4.43440312 83.5974085,4.14800729 C83.9456901,3.86161146 84.1192113,3.45537187 84.1192113,2.93051771 C84.1192113,2.40443437 83.9456901,2.00065312 83.5974085,1.71794479 L83.5974085,1.71794479 Z M84.1551549,8.23621563 L82.4583662,5.82459062 C82.3870986,5.83196562 82.280507,5.83626771 82.1379718,5.83626771 L80.2639437,5.83626771 L80.2639437,8.23621563 L78.7214648,8.23621563 L78.7214648,0.000184375 L82.1379718,0.000184375 C82.8580845,0.000184375 83.4846197,0.117569792 84.0188169,0.352955208 C84.5523944,0.588340625 84.9620282,0.925746875 85.2464789,1.36517396 C85.5315493,1.80460104 85.6734648,2.32576771 85.6734648,2.93051771 C85.6734648,3.54940312 85.5210141,4.08347604 85.2167324,4.53027812 C84.9124507,4.97769479 84.4755493,5.31079896 83.9060282,5.53020521 L85.816,8.23621563 L84.1551549,8.23621563 Z" id="Fill-15"></path>
                        <polygon id="Fill-17" points="91.9512113 4.78901771 90.6343099 6.13065312 90.6343099 8.23621563 89.091831 8.23621563 89.091831 0.000184375 90.6343099 0.000184375 90.6343099 4.22421562 94.7393239 0.000184375 96.4714366 0.000184375 92.983662 3.68276771 96.6852394 8.23621563 94.8818592 8.23621563"></polygon>
                        <polygon id="Fill-19" points="105.709639 6.9538875 105.709639 8.23652292 99.4808507 8.23652292 99.4808507 0.000491666667 105.543555 0.000491666667 105.543555 1.2825125 101.02333 1.2825125 101.02333 3.42433542 105.033527 3.42433542 105.033527 4.68361667 101.02333 4.68361667 101.02333 6.9538875"></polygon>
                        <path d="M113.925493,1.71794479 C113.577211,1.43585104 113.067183,1.29511146 112.394789,1.29511146 L110.592028,1.29511146 L110.592028,4.57698646 L112.394789,4.57698646 C113.067183,4.57698646 113.577211,4.43440312 113.925493,4.14800729 C114.273775,3.86161146 114.447296,3.45537187 114.447296,2.93051771 C114.447296,2.40443437 114.273775,2.00065312 113.925493,1.71794479 L113.925493,1.71794479 Z M114.483239,8.23621563 L112.786451,5.82459062 C112.715183,5.83196562 112.608592,5.83626771 112.466056,5.83626771 L110.592028,5.83626771 L110.592028,8.23621563 L109.049549,8.23621563 L109.049549,0.000184375 L112.466056,0.000184375 C113.186169,0.000184375 113.812704,0.117569792 114.346901,0.352955208 C114.880479,0.588340625 115.290113,0.925746875 115.574563,1.36517396 C115.859634,1.80460104 116.001549,2.32576771 116.001549,2.93051771 C116.001549,3.54940312 115.849099,4.08347604 115.544817,4.53027812 C115.240535,4.97769479 114.803634,5.31079896 114.234113,5.53020521 L116.144085,8.23621563 L114.483239,8.23621563 Z" id="Fill-22"></path>
                    </g>
                    <path d="M149.321313,2.66182187 C149.262439,2.14557187 150.007961,2.01896771 150.746045,2.02695729 C151.481031,2.03371771 164.267059,1.87945729 165.463115,1.90281146 C166.658552,1.92616562 174.20982,1.70983229 174.996862,1.70983229 C175.46413,1.70983229 175.575679,1.81431146 175.656242,2.12037396 C175.762214,2.51985313 175.143735,3.93155104 174.97889,4.17922812 C174.852468,4.36790521 173.107961,5.39856146 172.165989,5.54790521 C171.223397,5.69724896 168.289031,6.55336354 167.536693,6.69041563 C166.892806,6.80780104 166.749031,6.94055104 166.551961,7.47769688 C166.353651,8.01975938 164.247848,22.305749 163.958439,23.2921552 C163.664693,24.279176 161.29613,38.630926 161.138101,38.9855406 C160.978214,39.341999 160.647285,39.3702698 160.306439,39.3733427 C160.029425,39.3764156 156.977313,39.4071448 156.563341,39.405301 C156.093594,39.4022281 155.307792,38.2732385 155.103904,37.8946552 C154.898777,37.5166865 155.084693,36.7521448 155.235904,35.8013844 C155.389594,34.8536969 157.820749,19.6040406 157.981256,18.7989365 C158.143623,17.980926 158.651172,15.2398844 158.727397,14.8281135 C158.799285,14.4446135 159.800749,8.04004063 159.90858,7.50350938 C159.998439,7.05363438 159.936468,6.95468646 159.341538,6.92088438 C158.747228,6.88646771 150.948073,6.49559271 150.498158,6.37144688 C150.175904,6.28356146 150.092862,6.18031146 149.936693,5.74518646 C149.743961,5.20865521 149.383904,3.22232188 149.321313,2.66182187 Z M135.298699,4.96349792 C135.668051,4.93952917 138.957515,4.5806125 139.373346,4.56340417 C139.620614,4.55295625 140.082924,4.85963333 140.159149,5.18106042 C140.300445,5.76921667 142.219713,17.5667583 142.390755,18.1051333 C142.563656,18.6435083 143.48022,27.1081646 143.491994,27.2433729 C143.515544,27.5033417 143.846473,27.5752479 143.979713,27.3152792 C144.175544,26.9323937 148.083487,18.1088208 148.322699,17.6042479 C148.56253,17.099675 150.634248,11.5247896 150.723487,11.3115292 C150.812107,11.0994979 151.071769,10.9655188 151.278755,11.0976542 C151.483882,11.2304042 154.63453,13.0735396 154.870642,13.3027792 C155.103037,13.530175 155.556051,14.1509042 155.438924,14.518425 C155.341008,14.8306333 154.273854,18.338675 153.828896,19.1714354 C153.385797,20.0041958 149.056445,29.6089042 148.741628,30.079675 C148.437966,30.5356958 144.619262,37.6408937 144.190417,38.2456437 C143.769008,38.8417896 142.884051,40.3794771 142.600839,40.8760604 C142.316389,41.3726437 142.101346,41.8471021 141.611769,41.7739667 C141.030473,41.6860812 140.354361,41.5668521 140.095938,41.5133833 C139.606361,41.4095187 139.384501,40.8182896 139.276051,40.4827271 C139.144051,40.0789458 137.69329,28.3090604 137.625741,27.4701542 C137.56067,26.6306333 135.892389,13.4238521 135.699656,12.055175 C135.505065,10.6864979 134.985121,5.70345625 134.947318,5.40415417 C134.923769,5.20933125 135.105966,4.97578958 135.298699,4.96349792 Z M124.086569,1.75973646 C124.481949,1.53418437 126.026907,0.840319792 126.6584,0.642423958 C126.931076,0.557611458 127.036428,0.684215625 127.175865,1.15928854 C127.349386,1.74867396 129.755752,14.264049 130.698344,18.7738615 C131.636597,23.2646219 132.511639,30.8971323 132.656034,32.1238406 C132.79733,33.3185906 133.464146,37.7085594 133.363132,38.1104969 C133.261499,38.513049 132.595301,38.4313094 132.382118,38.4257781 C132.198062,38.4196323 129.943527,38.3317469 129.704315,38.306549 C129.478738,38.2825802 129.064766,37.7263823 129.046794,37.5383198 C129.030062,37.352101 127.497499,29.8898302 127.241555,28.2273823 C126.985611,26.5637052 124.869273,13.5701844 124.800485,12.9709656 C124.728597,12.3594552 124.682118,11.4492573 124.641837,11.2513615 C124.608992,11.0934135 124.453442,11.0344135 124.312766,11.0964865 C124.226625,11.1345906 124.125611,11.2132573 124.066118,11.3472365 C124.004146,11.487976 122.844034,14.1491219 122.542851,14.7047052 C122.32533,15.1072573 118.460766,23.8312677 118.154625,24.1090594 C117.847245,24.386851 117.472315,24.5165281 117.202118,24.5214448 C116.93378,24.5263615 114.40471,24.0482156 114.069442,23.9037885 C113.732315,23.759976 113.52409,23.5141427 113.509837,23.1238823 C113.483808,22.3716323 118.266175,12.2869344 118.730963,11.1130802 C119.703921,8.66335104 123.300146,2.71541354 123.430907,2.40996563 C123.564146,2.10513229 123.841161,1.90047604 124.086569,1.75973646 Z M103.480625,2.34611042 C103.6244,2.26498542 107.108456,0.743891667 107.596175,0.621589583 C107.8044,0.57119375 108.521414,0.99156875 108.542485,1.3216 C108.567893,1.72906875 108.561696,7.97200625 108.541865,8.62223542 C108.522654,9.24480833 108.637301,11.742475 108.709808,12.5057875 C108.782315,13.2684854 109.864344,27.1451625 109.91578,27.4260271 C109.973414,27.7400792 110.429527,28.0424542 110.930259,28.0375375 C111.432851,28.0313917 122.358485,27.8759021 122.996794,27.8759021 C123.652456,27.8759021 123.852006,27.9926729 123.734879,28.4769646 C123.625189,28.9317562 122.444006,31.9333812 122.285358,32.1878187 C122.127949,32.4428708 121.684851,32.8841417 120.946766,32.9271625 C120.221076,32.9707979 111.424794,33.2977562 110.691668,33.3291 C109.957921,33.3604437 105.241245,32.8331312 104.854541,32.7599958 C104.498203,32.6917771 104.161696,32.1073083 104.110259,31.8547146 C104.04147,31.5216104 102.969358,23.1245583 103.006541,21.7017979 C103.047442,20.1094125 103.204231,3.054725 103.213527,2.81688125 C103.224062,2.59624583 103.33747,2.42539167 103.480625,2.34611042 Z" id="Combined-Shape" fill="#FFFFFF"></path>
                    <path d="M89.3796169,41.78085 C87.7553352,41.78085 86.3981521,41.6437979 85.2287437,41.3635479 C82.2379831,40.6432562 80.9130254,36.6564542 80.6874479,33.46185 C80.4854197,30.6200167 81.0549408,28.439475 82.3328,27.156225 C82.5968,26.8925687 83.4594479,25.9934333 84.2322366,25.1883292 C84.900293,24.4932354 85.5008,23.8675896 85.5925183,23.7778604 C85.6675042,23.7053396 85.7059268,23.5805792 85.6464338,23.5215792 C85.5076169,23.3876 83.3200113,20.7793083 82.8583211,19.7750792 C82.2578141,18.4660167 82.2008,15.3998604 82.612293,14.2284646 C82.9667718,13.217475 84.6852507,11.0824125 88.6464901,10.2318292 C89.0381521,10.1482458 89.4403493,10.1058396 89.8431662,10.1058396 C91.4593915,10.1058396 93.1382085,10.7720479 94.6980394,12.0319437 C95.4863211,12.6698812 96.4673352,14.3562979 96.5999549,15.6592146 C96.6235042,15.9007458 96.4400676,16.1090896 96.0942648,16.23385 L95.9288,16.2946937 C95.508631,16.4507979 94.8728,16.6880271 94.3857014,16.6880271 C94.2462648,16.6880271 94.1241803,16.668975 94.0231662,16.6302562 C93.7263211,16.5177875 93.4226592,15.9751104 93.0855324,15.3310271 C93.0148845,15.1952042 92.9560113,15.0827354 92.9151099,15.0157458 C92.3282366,14.0668292 91.0553352,13.3821833 90.2794479,13.3606729 C90.2050817,13.3588292 90.1313352,13.3576 90.0582085,13.3576 C88.5727437,13.3576 87.4721239,13.8013292 86.7860958,14.6758812 C86.1570817,15.4785271 86.1626592,17.2380792 86.7972507,18.68235 C87.4349408,20.1290792 89.1583775,21.9341104 89.8059831,22.6138396 C90.0675042,22.8873292 90.6240113,23.4343083 91.3311099,24.1294021 C92.4199549,25.1993917 93.9109972,26.6639437 95.1076732,27.8986417 C97.5506028,30.4202771 104.470377,37.1259958 107.425194,39.9893396 L108.494208,41.0267562 C108.587166,41.1171 108.619392,41.2516937 108.575392,41.3629333 C108.53511,41.4631104 108.442772,41.5264125 108.326885,41.5313292 L106.426828,41.6136833 C106.089701,41.6136833 105.612518,41.507975 105.354715,41.3070062 C105.144631,41.1435271 104.210715,40.4232354 103.124969,39.5861729 C100.869194,37.8462875 99.1377014,36.5101833 99.0695324,36.4517979 L99.068293,36.4517979 C98.9982648,36.4517979 98.9381521,36.4690062 98.8947718,36.5151 L98.4138704,37.0362667 C96.6396169,38.9629854 94.2090817,41.6020062 92.0685746,41.6954229 L91.6911662,41.7132458 C91.0417014,41.7433604 90.232969,41.78085 89.3796169,41.78085 M88.2207437,26.2644646 C88.1841803,26.2644646 88.1352225,26.2810583 88.0806873,26.3111729 C87.9778141,26.3683292 87.0569127,27.1205792 86.0188845,28.1168187 C85.0694761,29.0257875 84.3220958,31.7766625 84.5891944,33.3708917 C84.845138,34.8969021 85.7499268,37.5789437 87.5217014,37.9575271 C88.2207437,38.1081 88.908631,38.1812354 89.6244056,38.1812354 C90.3184901,38.1812354 90.9388282,38.1117875 91.4860394,38.0515583 L91.6992225,38.0275896 C92.9578704,37.8917667 94.8300394,35.7978812 95.8358423,34.6725792 L96.1835042,34.28785 C96.2225465,34.2436 96.2882366,34.1716937 96.2931944,34.1471104 C96.2925746,34.1471104 96.2869972,34.1305167 96.2560113,34.0961 C96.144462,33.9756417 92.0437859,29.9685583 89.8406873,27.8156729 C88.9836169,26.9779958 88.3645183,26.3738604 88.2783775,26.2884333 C88.2610254,26.2718396 88.244293,26.2644646 88.2207437,26.2644646" id="Fill-41" fill="#B7C42E"></path>
                    <path d="M81.633138,5.16274583 C81.996293,5.22543333 82.180969,5.46819375 82.2850817,5.62982917 C82.4418704,5.87136042 83.0008563,6.80737083 83.0417577,7.09130833 C83.1018704,7.49877708 81.0915042,9.40644375 80.6700958,9.9356 C80.5951099,10.0296312 80.392462,10.0714229 80.3125183,10.0591312 C79.8650817,9.987225 75.6311662,9.12189167 75.1291944,9.0247875 C74.628462,8.92645417 74.7208,9.14893333 74.6619268,9.41689167 C74.6036732,9.68300625 73.5197859,19.3153708 73.4280676,19.6638396 C73.3357296,20.0116937 72.4873352,33.0943292 72.4495324,33.4354229 C72.4055324,33.8207667 72.0113915,34.4021625 71.8006873,34.7678396 C71.6909972,34.9571312 69.5250817,38.7657042 69.0949972,38.6089854 C68.6636732,38.4522667 67.2699268,36.9827979 67.2730254,36.6128187 C67.2767437,36.2409958 67.960293,19.2397771 67.9869408,18.7812979 C68.0148282,18.3234333 68.7491944,8.335225 68.8148845,7.75198542 C68.8415324,7.50861042 68.8514479,7.34451667 68.6215324,7.27875625 C68.0798986,7.12449583 55.7568,4.5555375 53.8220394,4.03744375 C53.5778704,3.97168333 53.4353352,3.68344375 53.5270535,3.48063125 C53.7179268,3.06455833 53.972631,2.4536625 54.2260958,2.06524583 C54.5712789,1.53854792 55.312462,0.558902083 55.9315606,0.604995833 C56.5518986,0.652933333 73.292969,3.68590208 74.1302085,3.83770417 C74.960631,3.98827708 81.3598423,5.11542292 81.633138,5.16274583 Z M50.7394986,8.30769167 C50.7717239,8.8890875 51.4850197,23.0878063 51.5277803,23.4762229 C51.5736394,23.8750875 51.8066535,24.1676292 51.9572451,24.3618375 C52.0774704,24.5179417 53.2282873,26.0648479 53.6589915,26.5380771 C53.7587662,26.6474729 53.8944845,26.6056813 53.952738,26.5393063 C54.560062,25.8325354 56.8858648,21.6945458 57.1820901,20.7142854 C57.5012451,19.6485979 60.4926254,10.4839312 60.752907,9.70709792 C60.8836676,9.31806667 61.1916676,9.27012917 61.4829352,9.4127125 C61.7748225,9.55345208 64.3156676,11.1605875 64.5108789,11.3289833 C64.5356676,11.3511083 64.6831606,11.4525146 64.6775831,11.6528687 C64.636062,13.0516604 63.7969634,18.2639417 63.5682873,19.0899417 C63.3080056,20.0351708 59.3672169,29.8599 58.5677803,30.6225979 C57.7336394,31.4184833 51.1516113,38.4136708 50.8690197,38.7252646 C50.5864282,39.0344 50.0925127,39.2544208 49.7975268,39.3896292 C49.260231,39.6385354 43.6753296,41.46815 42.4191606,41.770525 C42.316907,41.7951083 42.196062,41.7779 42.1458648,41.70415 C41.9333014,41.3907125 41.5255268,40.7644521 41.5211887,40.4073792 C41.5211887,40.3182646 41.5720056,40.1873583 41.6618648,40.0976292 C41.7634986,39.9974521 47.9222592,33.5480146 49.4926254,31.8075146 C49.6934141,31.5844208 49.7237803,31.1683479 49.3507099,30.7381396 C48.8332451,30.1395354 46.228569,27.359775 45.9397803,26.9473896 C45.652231,26.5368479 45.6330197,25.5289313 45.6553296,25.0415667 C45.6782592,24.5578896 45.9695268,12.8998583 46.1727944,11.0475042 C46.188907,10.913525 46.2211324,10.7672542 46.3463155,10.662775 C46.9933014,10.1219417 49.3469915,8.28065 49.9505972,7.84798333 C50.2877239,7.60645208 50.7072732,7.72506667 50.7394986,8.30769167 Z M46.2604845,2.81245625 C45.9276958,3.32440417 42.162907,9.26496667 41.9181183,9.64662292 C41.806569,9.82116458 41.7854986,10.0264354 41.8363155,10.2101958 C41.9974423,10.7934354 43.5089352,16.0641021 43.4636958,18.6545708 C43.4184563,21.2456542 40.746231,27.9685812 39.1132732,29.7324354 C37.1971042,31.8041958 32.5293859,32.0420396 32.1135549,32.0604771 C31.8805408,32.0703104 31.7888225,32.1526646 31.6574423,32.3481021 C31.4039775,32.7186958 27.7464,37.9985812 27.5208225,38.3163208 C27.3367662,38.5769042 26.4927099,39.1281854 26.0279211,39.3555812 C25.9250479,39.4065917 25.8110197,39.4367062 25.5445408,39.3537375 C25.0010479,39.1878 23.9741746,38.7557479 23.8198648,38.6770812 C23.718231,38.6260708 23.5763155,38.5344979 23.5657803,38.3697896 C23.5471887,38.0618833 23.5490479,37.5818937 23.6909634,37.22605 C23.8719211,36.7712583 25.8463437,31.3266646 25.9200901,31.1607271 C25.9603718,31.0685396 25.9628507,30.9781958 25.8996394,30.9038312 C25.7366535,30.7096229 25.3710197,30.2431542 25.1026817,29.9383208 C24.7420056,29.5302375 23.2565408,27.3029875 23.2113014,26.3934042 C23.166062,25.48505 23.1772169,24.0204979 23.1561465,17.4628937 C23.1350761,10.9059042 25.7589634,8.58155 26.8397521,7.53675833 C27.9205408,6.48889375 34.2280338,5.12697708 34.9041465,5.03540417 C35.5790197,4.945675 37.9203155,5.8196125 38.3113577,5.98800833 C38.5555268,6.09310208 38.7494986,6.096175 38.9205408,5.87369583 C39.1919775,5.5246125 39.5675268,4.83627917 39.9567099,4.1528625 C40.4946254,3.20824792 41.1608225,1.92438333 41.4136676,1.51138333 C41.4948507,1.37678958 41.7613296,1.3946125 41.7898366,1.39768542 C41.9757521,1.41550833 45.8266817,1.76827917 46.0671324,1.79777917 C46.2164845,1.81621667 46.2604845,1.8592375 46.290231,2.00305 C46.3131606,2.11183125 46.3367099,2.69507083 46.2604845,2.81245625 Z M37.9358085,21.8399562 C38.1582873,21.4226542 38.3882028,19.9777687 38.6032451,18.0651854 C38.8182873,16.1538312 37.6042592,12.7625604 37.0341183,12.1190917 C36.5464,11.5671958 34.498231,10.0799042 33.1466254,9.94408125 C31.7950197,9.80825833 30.3981746,10.7172271 29.3186254,12.2168104 C28.2365972,13.7170083 28.426231,15.2958729 28.426231,17.9594771 C28.426231,19.9765396 28.5650479,23.3585917 28.7305127,24.8747687 C28.8166535,25.6595917 29.6557521,26.3128937 30.4167662,26.3712792 C31.0637521,26.4204458 34.1059493,26.3946333 35.1049352,26.0762792 C35.8039775,25.8519562 37.6209915,22.4305708 37.9358085,21.8399562 Z M0.706602817,5.17055104 C1.24699718,4.95790521 4.48130704,3.40485313 4.79922254,3.33110313 C5.11651831,3.25858229 6.15826479,3.64392604 6.15702535,3.85903021 C6.1551662,4.04586354 6.18119437,9.32451979 6.19358873,9.91267604 C6.20660282,10.5014469 5.98040563,17.843874 5.9723493,18.2077073 C5.96305352,18.6164052 6.09815211,18.7018323 6.34541972,18.6047281 C6.5951662,18.5070094 12.2240676,15.6276865 12.6268845,15.4463844 C12.8760113,15.3357594 12.8877859,14.9952802 12.8946028,14.7697281 C12.9032789,14.4728844 12.968969,10.3195302 12.9745465,9.73014479 C12.9788845,9.14813437 13.0538704,2.01589479 13.0836169,1.68586354 C13.1108845,1.37058229 13.8421521,0.603582292 14.1557296,0.603582292 C14.4686873,0.603582292 17.8312789,1.65636354 18.1349408,1.74670729 C18.4677296,1.84504063 18.816631,1.94521771 18.8674479,2.30106146 C18.9108282,2.60650938 19.0725746,10.9205927 19.0725746,11.4177906 C19.0725746,11.9137594 19.1797859,20.7821969 19.1618141,21.4361135 C19.144462,22.0685198 18.7156169,35.9998948 18.7001239,36.6200094 C18.6833915,37.2063219 17.3764056,39.0635927 17.1681803,39.361051 C16.9810254,39.6283948 15.6833352,41.698926 15.4230535,41.7769781 C15.1615324,41.853801 14.2331944,40.8784573 14.156969,40.6154156 C14.0801239,40.3517594 13.4697014,33.4137281 13.4635042,32.775176 C13.457307,32.1022073 13.092293,22.8840719 13.0848563,22.6572906 C13.0749408,22.339551 12.8729127,22.2074156 12.6820394,22.2971448 C12.5339268,22.3672073 11.3112225,22.9203323 10.7764056,23.2294677 C10.3097577,23.4998844 7.22789859,25.326426 6.91865915,25.5157177 C6.72220845,25.6343323 6.62119437,25.8777073 6.61747606,26.1561135 C6.61251831,26.4289885 6.99302535,37.0864781 6.99302535,37.8485615 C6.99302535,38.4625302 6.32310986,39.0666656 5.96553239,39.0666656 C5.60795493,39.0666656 2.11026479,36.7398531 1.78739155,36.5782177 C1.44158873,36.4055198 1.2643493,36.2322073 1.2203493,35.8253531 C1.17572958,35.4197281 1.03877183,32.1151135 0.89623662,30.3008635 C0.642152113,27.0718427 0.086884507,15.6344469 0.0478422535,14.6037906 C-0.0035943662,13.2928844 -0.00297464789,6.21903021 0.0026028169,5.83921771 C0.00818028169,5.47599896 0.290771831,5.33587396 0.706602817,5.17055104 Z" id="Combined-Shape" fill="#FFFFFF"></path>
                </g>
            </g>
        </g>
    </g>
</svg>