<svg id="Layer_1" data-name="Layer 1" xmlns="http://www.w3.org/2000/svg" viewBox="0 0 377.77 32.6"><defs><style>.cls-1{fill:#bcbec0;}.cls-2{fill:#007ac2;}</style></defs><polyline class="cls-1" points="10.38 32.17 4.16 32.17 1.55 2.46 7.69 2.46 9.23 23.68 17.76 2.46 22.61 2.46"/><path class="cls-1" d="M47.81,49.08H42.09l-3.73,6.85h-5L49.45,26.22H68.6L67.68,32H56.32l-1,6h9.09l-.9,5.58H54.45l-1.07,6.59H64.74l-.93,5.76H46.7M48.61,44.1l1.73-10.69h-.08L44.58,44.1Z" transform="translate(-18.6 -23.76)"/><path class="cls-1" d="M72.65,55.93H66.9l4.8-29.71H82.08c2.2,0,4.42,0,6.09,1.51s2.4,4.51,1.93,7.41c-.55,3.38-2.67,6.5-5.52,7.67L87,55.93h-6.4L78.75,44.19h-4.2m.82-5.11h3.17a6.28,6.28,0,0,0,3.62-.61,5.16,5.16,0,0,0,2-3.37,3.43,3.43,0,0,0-.91-3c-.86-.73-2.54-.56-3.62-.56h-3Z" transform="translate(-18.6 -23.76)"/><polyline class="cls-1" points="90.1 32.17 85.18 32.17 78.94 12.2 78.8 12.2 75.58 32.17 71.12 32.17 75.92 2.46 82.13 2.46 87.55 19.91 87.62 19.91 90.44 2.46 94.89 2.46"/><polyline class="cls-1" points="103.67 8.22 102.7 14.24 112.05 14.24 111.14 19.82 101.8 19.82 100.74 26.41 112.6 26.41 111.67 32.17 94.06 32.17 98.85 2.46 116.46 2.46 115.53 8.22"/><path class="cls-1" d="M148.61,34.71c-.31-2.52-1.48-3.51-3.67-3.51-1.55,0-3.49.47-3.86,2.77s1.72,2.69,3.07,3c1.93.52,4.53,1.12,6,2.51a7.51,7.51,0,0,1,2.1,7A12.3,12.3,0,0,1,148,53.94a11.77,11.77,0,0,1-7.55,2.42c-4.63,0-8.45-2.42-8.63-8.23l5.56-1.47c.22,3.12,1.91,4.2,4.46,4.2,1.66,0,4-.74,4.37-3.2s-2.33-2.95-3.78-3.34c-4.21-1.08-8.27-2.64-7.22-9.14a11.46,11.46,0,0,1,3.78-7,9.56,9.56,0,0,1,6.57-2.42c4.32,0,7.55,1.81,8.23,7" transform="translate(-18.6 -23.76)"/><polyline class="cls-1" points="153.24 18.65 152.47 23.42 144.06 23.42 144.83 18.65"/><polyline class="cls-1" points="172.32 8.22 171.35 14.24 180.7 14.24 179.8 19.82 170.45 19.82 169.39 26.41 181.25 26.41 180.32 32.17 162.71 32.17 167.5 2.46 185.11 2.46 184.18 8.22"/><polyline class="cls-1" points="191.01 16.45 201 2.46 206.53 2.46 198.89 13.07 203.22 32.17 196.85 32.17 194.04 19.3 189.58 25.32 188.48 32.17 182.87 32.17 187.66 2.46 193.27 2.46"/><path class="cls-1" d="M239.48,34.71c-.31-2.52-1.48-3.51-3.68-3.51-1.54,0-3.49.47-3.86,2.77s1.72,2.69,3.08,3c1.93.52,4.53,1.12,6,2.51a7.54,7.54,0,0,1,2.1,7,12.32,12.32,0,0,1-4.26,7.45,11.72,11.72,0,0,1-7.54,2.42c-4.64,0-8.45-2.42-8.63-8.23l5.56-1.47c.21,3.12,1.91,4.2,4.46,4.2,1.65,0,4-.74,4.36-3.2s-2.33-2.95-3.77-3.34c-4.21-1.08-8.28-2.64-7.23-9.14a11.52,11.52,0,0,1,3.79-7,9.56,9.56,0,0,1,6.57-2.42c4.31,0,7.54,1.81,8.22,7" transform="translate(-18.6 -23.76)"/><path class="cls-1" d="M250.83,55.93h-5.75l4.79-29.71h9.27c2.41,0,4.6,0,6.38,1.69s2.5,4.33,2,7.4a12.82,12.82,0,0,1-3.88,7.54c-2.46,2.12-4.72,2.08-7.34,2.08H252.6m4.11-5.42a4.29,4.29,0,0,0,3.73-1.3,5.14,5.14,0,0,0,1.22-2.64,3.81,3.81,0,0,0-.68-3.12,3.93,3.93,0,0,0-3-.82h-3.2l-1.27,7.88Z" transform="translate(-18.6 -23.76)"/><path class="cls-1" d="M272.43,55.93h-5.75l4.79-29.71h10.39c2.19,0,4.41,0,6.08,1.51s2.4,4.51,1.94,7.41c-.55,3.38-2.67,6.5-5.52,7.67l2.45,13.12h-6.4l-1.88-11.74h-4.21m.83-5.11h3.16a6.25,6.25,0,0,0,3.62-.61,5.13,5.13,0,0,0,2-3.37,3.44,3.44,0,0,0-.92-3c-.85-.73-2.53-.56-3.61-.56h-3Z" transform="translate(-18.6 -23.76)"/><polyline class="cls-1" points="280.51 8.22 279.54 14.24 288.89 14.24 287.99 19.82 278.64 19.82 277.58 26.41 289.44 26.41 288.51 32.17 270.9 32.17 275.69 2.46 293.31 2.46 292.38 8.22"/><path class="cls-1" d="M325.46,34.71c-.32-2.52-1.49-3.51-3.68-3.51-1.54,0-3.49.47-3.86,2.77s1.72,2.69,3.08,3c1.93.52,4.52,1.12,6,2.51a7.56,7.56,0,0,1,2.1,7,12.36,12.36,0,0,1-4.26,7.45,11.74,11.74,0,0,1-7.54,2.42c-4.64,0-8.45-2.42-8.63-8.23l5.56-1.47c.21,3.12,1.91,4.2,4.46,4.2,1.65,0,4-.74,4.36-3.2s-2.33-2.95-3.77-3.34c-4.21-1.08-8.28-2.64-7.23-9.14a11.52,11.52,0,0,1,3.79-7,9.54,9.54,0,0,1,6.57-2.42c4.31,0,7.54,1.81,8.22,7" transform="translate(-18.6 -23.76)"/><path class="cls-1" d="M347,34.71c-.31-2.52-1.48-3.51-3.67-3.51-1.55,0-3.5.47-3.87,2.77s1.73,2.69,3.08,3c1.93.52,4.53,1.12,6,2.51a7.54,7.54,0,0,1,2.1,7,12.3,12.3,0,0,1-4.25,7.45,11.77,11.77,0,0,1-7.55,2.42c-4.63,0-8.45-2.42-8.63-8.23l5.56-1.47c.22,3.12,1.91,4.2,4.46,4.2,1.66,0,4-.74,4.37-3.2s-2.33-2.95-3.78-3.34c-4.21-1.08-8.27-2.64-7.22-9.14a11.46,11.46,0,0,1,3.78-7,9.56,9.56,0,0,1,6.57-2.42c4.32,0,7.55,1.81,8.22,7" transform="translate(-18.6 -23.76)"/><polyline class="cls-1" points="342.84 8.22 341.87 14.24 351.22 14.24 350.31 19.82 340.97 19.82 339.91 26.41 351.77 26.41 350.84 32.17 333.23 32.17 338.02 2.46 355.63 2.46 354.7 8.22"/><polyline class="cls-1" points="372.98 32.17 368.06 32.17 361.82 12.2 361.68 12.2 358.46 32.17 354 32.17 358.8 2.46 365.01 2.46 370.43 19.91 370.5 19.91 373.32 2.46 377.77 2.46"/><polyline class="cls-2" points="8.83 30.14 2.61 30.14 0 0.43 6.15 0.43 7.68 21.65 16.21 0.43 21.06 0.43"/><path class="cls-2" d="M46.26,47.06H40.54L36.82,53.9h-5L47.9,24.19H67.06L66.13,30H54.77l-1,6h9.09L62,41.56H52.9l-1.06,6.58H63.2l-.93,5.76H45.16m1.9-11.82,1.73-10.7h-.07L43,42.08Z" transform="translate(-18.6 -23.76)"/><path class="cls-2" d="M71.11,53.9H65.36l4.79-29.71H80.54c2.19,0,4.41,0,6.08,1.52s2.4,4.5,1.93,7.41C88,36.49,85.89,39.61,83,40.78L85.49,53.9h-6.4L77.21,42.17H73m.83-5.11H77a6.26,6.26,0,0,0,3.62-.61,5.14,5.14,0,0,0,2-3.38,3.38,3.38,0,0,0-.91-3c-.85-.74-2.53-.56-3.61-.56h-3Z" transform="translate(-18.6 -23.76)"/><polyline class="cls-2" points="88.56 30.14 83.63 30.14 77.4 10.18 77.25 10.18 74.03 30.14 69.58 30.14 74.37 0.43 80.59 0.43 86 17.89 86.08 17.89 88.89 0.43 93.35 0.43"/><polyline class="cls-2" points="102.12 6.19 101.15 12.21 110.5 12.21 109.6 17.8 100.25 17.8 99.19 24.38 111.05 24.38 110.12 30.14 92.51 30.14 97.3 0.43 114.91 0.43 113.98 6.19"/><path class="cls-2" d="M147.07,32.68c-.32-2.51-1.49-3.51-3.68-3.51-1.55,0-3.49.48-3.86,2.78s1.72,2.68,3.08,3c1.92.52,4.52,1.13,6,2.52a7.53,7.53,0,0,1,2.11,7,12.34,12.34,0,0,1-4.26,7.45,11.75,11.75,0,0,1-7.54,2.43c-4.64,0-8.45-2.43-8.63-8.23l5.55-1.47c.22,3.11,1.91,4.2,4.47,4.2,1.65,0,4-.74,4.36-3.21s-2.33-2.94-3.78-3.33c-4.21-1.09-8.27-2.64-7.22-9.14a11.53,11.53,0,0,1,3.78-7,9.58,9.58,0,0,1,6.58-2.43c4.31,0,7.54,1.82,8.22,7" transform="translate(-18.6 -23.76)"/><polyline class="cls-2" points="151.7 16.63 150.93 21.39 142.52 21.39 143.28 16.63"/><polyline class="cls-2" points="170.78 6.19 169.81 12.21 179.15 12.21 178.25 17.8 168.9 17.8 167.84 24.38 179.7 24.38 178.77 30.14 161.16 30.14 165.95 0.43 183.57 0.43 182.64 6.19"/><polyline class="cls-2" points="189.47 14.42 199.45 0.43 204.99 0.43 197.35 11.04 201.67 30.14 195.31 30.14 192.49 17.28 188.04 23.3 186.93 30.14 181.33 30.14 186.12 0.43 191.72 0.43"/><path class="cls-2" d="M237.93,32.68c-.31-2.51-1.48-3.51-3.67-3.51-1.55,0-3.49.48-3.87,2.78s1.73,2.68,3.08,3c1.93.52,4.53,1.13,6,2.52a7.5,7.5,0,0,1,2.1,7,12.27,12.27,0,0,1-4.25,7.45,11.78,11.78,0,0,1-7.55,2.43c-4.63,0-8.45-2.43-8.63-8.23l5.56-1.47c.22,3.11,1.91,4.2,4.46,4.2,1.66,0,4-.74,4.37-3.21s-2.33-2.94-3.78-3.33c-4.21-1.09-8.27-2.64-7.22-9.14a11.43,11.43,0,0,1,3.78-7,9.57,9.57,0,0,1,6.57-2.43c4.32,0,7.55,1.82,8.23,7" transform="translate(-18.6 -23.76)"/><path class="cls-2" d="M249.28,53.9h-5.75l4.79-29.71h9.28c2.41,0,4.6,0,6.37,1.69s2.5,4.33,2,7.41a12.76,12.76,0,0,1-3.88,7.53c-2.46,2.13-4.72,2.08-7.34,2.08h-3.7m4.1-5.41a4.32,4.32,0,0,0,3.74-1.3,5.29,5.29,0,0,0,1.21-2.64,3.81,3.81,0,0,0-.68-3.12,3.93,3.93,0,0,0-3-.82h-3.2l-1.27,7.88Z" transform="translate(-18.6 -23.76)"/><path class="cls-2" d="M270.88,53.9h-5.75l4.8-29.71h10.38c2.2,0,4.42,0,6.09,1.52s2.4,4.5,1.93,7.41c-.55,3.37-2.67,6.49-5.52,7.66l2.45,13.12h-6.4L277,42.17h-4.2m.82-5.11h3.17a6.28,6.28,0,0,0,3.62-.61,5.18,5.18,0,0,0,2-3.38,3.41,3.41,0,0,0-.91-3c-.86-.74-2.54-.56-3.62-.56h-3Z" transform="translate(-18.6 -23.76)"/><polyline class="cls-2" points="278.97 6.19 278 12.21 287.34 12.21 286.44 17.8 277.1 17.8 276.03 24.38 287.9 24.38 286.97 30.14 269.35 30.14 274.15 0.43 291.76 0.43 290.83 6.19"/><path class="cls-2" d="M323.91,32.68c-.31-2.51-1.48-3.51-3.67-3.51-1.55,0-3.5.48-3.87,2.78s1.73,2.68,3.08,3c1.93.52,4.53,1.13,6,2.52a7.53,7.53,0,0,1,2.1,7,12.32,12.32,0,0,1-4.25,7.45,11.78,11.78,0,0,1-7.55,2.43c-4.64,0-8.45-2.43-8.63-8.23l5.56-1.47c.21,3.11,1.91,4.2,4.46,4.2,1.66,0,4-.74,4.36-3.21s-2.32-2.94-3.77-3.33c-4.21-1.09-8.27-2.64-7.23-9.14a11.49,11.49,0,0,1,3.79-7,9.57,9.57,0,0,1,6.57-2.43c4.32,0,7.55,1.82,8.22,7" transform="translate(-18.6 -23.76)"/><path class="cls-2" d="M345.41,32.68c-.32-2.51-1.49-3.51-3.68-3.51-1.55,0-3.49.48-3.86,2.78s1.72,2.68,3.07,3c1.93.52,4.53,1.13,6,2.52a7.53,7.53,0,0,1,2.11,7,12.34,12.34,0,0,1-4.26,7.45,11.75,11.75,0,0,1-7.54,2.43c-4.64,0-8.46-2.43-8.63-8.23l5.55-1.47c.22,3.11,1.91,4.2,4.47,4.2,1.65,0,4-.74,4.36-3.21s-2.33-2.94-3.78-3.33C335,41.21,331,39.66,332,33.16a11.53,11.53,0,0,1,3.78-7,9.58,9.58,0,0,1,6.58-2.43c4.31,0,7.54,1.82,8.22,7" transform="translate(-18.6 -23.76)"/><polyline class="cls-2" points="341.3 6.19 340.32 12.21 349.67 12.21 348.77 17.8 339.42 17.8 338.36 24.38 350.22 24.38 349.29 30.14 331.68 30.14 336.47 0.43 354.08 0.43 353.16 6.19"/><polyline class="cls-2" points="371.44 30.14 366.51 30.14 360.28 10.18 360.13 10.18 356.91 30.14 352.46 30.14 357.25 0.43 363.47 0.43 368.88 17.89 368.95 17.89 371.77 0.43 376.23 0.43"/></svg>